<svg width="40" height="40" viewBox="0 0 40 40" fill="none" xmlns="http://www.w3.org/2000/svg">
<circle cx="20" cy="20" r="20" fill="#0DA200" fill-opacity="0.1"/>
<path d="M19.1359 20.9089L20.454 19.9317L21.7495 20.9089C21.8859 21.015 22.0222 21.0226 22.1586 20.9317C22.2949 20.8408 22.3404 20.712 22.2949 20.5453L21.7949 18.9317L23.1813 17.8635C23.3025 17.7574 23.3366 17.6286 23.2836 17.4771C23.2305 17.3256 23.1207 17.2498 22.954 17.2498H21.2949L20.7722 15.568C20.7268 15.4014 20.6245 15.318 20.4654 15.318C20.3063 15.318 20.1965 15.4014 20.1359 15.568L19.5904 17.2498H17.954C17.7874 17.2498 17.6775 17.3256 17.6245 17.4771C17.5715 17.6286 17.6055 17.7574 17.7268 17.8635L19.1131 18.9317L18.6131 20.5453C18.5677 20.712 18.6131 20.8408 18.7495 20.9317C18.8859 21.0226 19.0146 21.015 19.1359 20.9089ZM15.9995 29.7044C15.7874 29.7801 15.5828 29.7498 15.3859 29.6135C15.1889 29.4771 15.0904 29.2877 15.0904 29.0453V23.0908C14.4086 22.3786 13.9199 21.5983 13.6245 20.7498C13.329 19.9014 13.1813 19.0453 13.1813 18.1817C13.1813 16.1211 13.8783 14.3938 15.2722 12.9998C16.6662 11.6059 18.3934 10.9089 20.454 10.9089C22.5146 10.9089 24.2419 11.6059 25.6359 12.9998C27.0298 14.3938 27.7268 16.1211 27.7268 18.1817C27.7268 19.0453 27.579 19.9014 27.2836 20.7498C26.9881 21.5983 26.4995 22.3786 25.8177 23.0908V29.0453C25.8177 29.2877 25.7192 29.4771 25.5222 29.6135C25.3252 29.7498 25.1207 29.7801 24.9086 29.7044L20.454 28.2044L15.9995 29.7044ZM20.454 24.0908C22.1055 24.0908 23.5033 23.5188 24.6472 22.3748C25.7912 21.2309 26.3631 19.8332 26.3631 18.1817C26.3631 16.5301 25.7912 15.1324 24.6472 13.9885C23.5033 12.8445 22.1055 12.2726 20.454 12.2726C18.8025 12.2726 17.4048 12.8445 16.2609 13.9885C15.1169 15.1324 14.5449 16.5301 14.5449 18.1817C14.5449 19.8332 15.1169 21.2309 16.2609 22.3748C17.4048 23.5188 18.8025 24.0908 20.454 24.0908ZM16.454 28.0908L20.454 26.8408L24.454 28.0908V24.2044C23.848 24.6438 23.1965 24.962 22.4995 25.1589C21.8025 25.3559 21.1207 25.4544 20.454 25.4544C19.7874 25.4544 19.1055 25.3559 18.4086 25.1589C17.7116 24.962 17.0601 24.6438 16.454 24.2044V28.0908Z" fill="url(#paint0_linear_297_487)"/>
<defs>
<linearGradient id="paint0_linear_297_487" x1="20.454" y1="10.9089" x2="20.454" y2="29.745" gradientUnits="userSpaceOnUse">
<stop stop-color="#17AC0A"/>
<stop offset="1" stop-color="#17AC0A" stop-opacity="0.3"/>
</linearGradient>
</defs>
</svg>
