<svg width="140" height="112" viewBox="0 0 140 112" fill="none" xmlns="http://www.w3.org/2000/svg">
<rect width="140" height="112" rx="7.16981" transform="matrix(-1 0 0 1 140 0)" fill="url(#paint0_linear_297_481)"/>
<circle cx="71" cy="40" r="20" fill="#0DA200" fill-opacity="0.1"/>
<path d="M70.1359 40.9089L71.454 39.9317L72.7495 40.9089C72.8859 41.015 73.0222 41.0226 73.1586 40.9317C73.2949 40.8408 73.3404 40.712 73.2949 40.5453L72.7949 38.9317L74.1813 37.8635C74.3025 37.7574 74.3366 37.6286 74.2836 37.4771C74.2305 37.3256 74.1207 37.2498 73.954 37.2498H72.2949L71.7722 35.568C71.7268 35.4014 71.6245 35.318 71.4654 35.318C71.3063 35.318 71.1965 35.4014 71.1359 35.568L70.5904 37.2498H68.954C68.7874 37.2498 68.6775 37.3256 68.6245 37.4771C68.5715 37.6286 68.6055 37.7574 68.7268 37.8635L70.1131 38.9317L69.6131 40.5453C69.5677 40.712 69.6131 40.8408 69.7495 40.9317C69.8859 41.0226 70.0146 41.015 70.1359 40.9089ZM66.9995 49.7044C66.7874 49.7801 66.5828 49.7498 66.3859 49.6135C66.1889 49.4771 66.0904 49.2877 66.0904 49.0453V43.0908C65.4086 42.3786 64.9199 41.5983 64.6245 40.7498C64.329 39.9014 64.1813 39.0453 64.1813 38.1817C64.1813 36.1211 64.8783 34.3938 66.2722 32.9998C67.6662 31.6059 69.3934 30.9089 71.454 30.9089C73.5146 30.9089 75.2419 31.6059 76.6359 32.9998C78.0298 34.3938 78.7268 36.1211 78.7268 38.1817C78.7268 39.0453 78.579 39.9014 78.2836 40.7498C77.9881 41.5983 77.4995 42.3786 76.8177 43.0908V49.0453C76.8177 49.2877 76.7192 49.4771 76.5222 49.6135C76.3252 49.7498 76.1207 49.7801 75.9086 49.7044L71.454 48.2044L66.9995 49.7044ZM71.454 44.0908C73.1055 44.0908 74.5033 43.5188 75.6472 42.3748C76.7912 41.2309 77.3631 39.8332 77.3631 38.1817C77.3631 36.5301 76.7912 35.1324 75.6472 33.9885C74.5033 32.8445 73.1055 32.2726 71.454 32.2726C69.8025 32.2726 68.4048 32.8445 67.2609 33.9885C66.1169 35.1324 65.5449 36.5301 65.5449 38.1817C65.5449 39.8332 66.1169 41.2309 67.2609 42.3748C68.4048 43.5188 69.8025 44.0908 71.454 44.0908ZM67.454 48.0908L71.454 46.8408L75.454 48.0908V44.2044C74.848 44.6438 74.1965 44.962 73.4995 45.1589C72.8025 45.3559 72.1207 45.4544 71.454 45.4544C70.7874 45.4544 70.1055 45.3559 69.4086 45.1589C68.7116 44.962 68.0601 44.6438 67.454 44.2044V48.0908Z" fill="url(#paint1_linear_297_481)"/>
<path d="M29.3477 84.4766H32.3066V88.6777C31.8535 88.8223 31.3926 88.9316 30.9238 89.0059C30.4551 89.0801 29.9121 89.1172 29.2949 89.1172C27.9902 89.1172 26.9805 88.7305 26.2656 87.957C25.5508 87.1836 25.1934 86.1035 25.1934 84.7168C25.1934 83.8223 25.3711 83.041 25.7266 82.373C26.082 81.7051 26.5938 81.1953 27.2617 80.8438C27.9336 80.4883 28.7246 80.3105 29.6348 80.3105C30.5488 80.3105 31.4004 80.4785 32.1895 80.8145L31.7793 81.752C31.0254 81.4238 30.2891 81.2598 29.5703 81.2598C28.5508 81.2598 27.7539 81.5684 27.1797 82.1855C26.6055 82.8027 26.3184 83.6465 26.3184 84.7168C26.3184 85.8496 26.5938 86.7109 27.1445 87.3008C27.6953 87.8906 28.4961 88.1855 29.5469 88.1855C30.1211 88.1855 30.6816 88.1172 31.2285 87.9805V85.4375H29.3477V84.4766ZM36.959 89.1172C35.9941 89.1172 35.2363 88.8262 34.6855 88.2441C34.1387 87.6582 33.8652 86.8535 33.8652 85.8301C33.8652 84.7988 34.1211 83.9785 34.6328 83.3691C35.1445 82.7559 35.8359 82.4492 36.707 82.4492C37.5156 82.4492 38.1602 82.7109 38.6406 83.2344C39.1211 83.7539 39.3613 84.459 39.3613 85.3496V85.9883H34.9551C34.9746 86.7188 35.1602 87.2734 35.5117 87.6523C35.8633 88.0312 36.3613 88.2207 37.0059 88.2207C37.3496 88.2207 37.6758 88.1914 37.9844 88.1328C38.293 88.0703 38.6543 87.9512 39.0684 87.7754V88.7012C38.7129 88.8535 38.3789 88.9609 38.0664 89.0234C37.7539 89.0859 37.3848 89.1172 36.959 89.1172ZM36.6953 83.3105C36.1914 83.3105 35.793 83.4727 35.5 83.7969C35.207 84.1211 35.0332 84.5723 34.9785 85.1504H38.2539C38.2461 84.5488 38.1074 84.0918 37.8379 83.7793C37.5684 83.4668 37.1875 83.3105 36.6953 83.3105ZM43.1465 88.2559C43.2832 88.2559 43.4434 88.2422 43.627 88.2148C43.8105 88.1875 43.9492 88.1562 44.043 88.1211V88.9297C43.9453 88.9727 43.793 89.0137 43.5859 89.0527C43.3828 89.0957 43.1758 89.1172 42.9648 89.1172C41.707 89.1172 41.0781 88.4551 41.0781 87.1309V83.3867H40.1699V82.8828L41.0898 82.4609L41.5117 81.0898H42.1387V82.5664H43.9961V83.3867H42.1387V87.1016C42.1387 87.4727 42.2266 87.7578 42.4023 87.957C42.582 88.1562 42.8301 88.2559 43.1465 88.2559ZM51.4961 89.1172C50.6328 89.1172 49.9688 88.8066 49.5039 88.1855H49.4336L49.457 88.4258C49.4883 88.7305 49.5039 89.002 49.5039 89.2402V91.8828H48.4492V82.5664H49.3164L49.457 83.4453H49.5039C49.7539 83.0938 50.043 82.8398 50.3711 82.6836C50.6992 82.5273 51.0781 82.4492 51.5078 82.4492C52.3438 82.4492 52.9922 82.7402 53.4531 83.3223C53.918 83.9004 54.1504 84.7168 54.1504 85.7715C54.1504 86.8223 53.918 87.6426 53.4531 88.2324C52.9883 88.8223 52.3359 89.1172 51.4961 89.1172ZM51.3203 83.334C50.6836 83.334 50.2227 83.5137 49.9375 83.873C49.6562 84.2324 49.5117 84.7969 49.5039 85.5664V85.7715C49.5039 86.6426 49.6484 87.2734 49.9375 87.6641C50.2266 88.0508 50.6953 88.2441 51.3438 88.2441C51.8828 88.2441 52.3027 88.0254 52.6035 87.5879C52.9082 87.1504 53.0605 86.541 53.0605 85.7598C53.0605 84.9746 52.9082 84.375 52.6035 83.9609C52.3027 83.543 51.875 83.334 51.3203 83.334ZM58.832 82.4492C59.1172 82.4492 59.3691 82.4727 59.5879 82.5195L59.459 83.4922C59.2207 83.4375 58.9883 83.4102 58.7617 83.4102C58.4219 83.4102 58.1055 83.5039 57.8125 83.6914C57.5234 83.8789 57.2969 84.1387 57.1328 84.4707C56.9688 84.7988 56.8867 85.1641 56.8867 85.5664V89H55.832V82.5664H56.6992L56.8164 83.7441H56.8633C57.1094 83.3184 57.4004 82.9961 57.7363 82.7773C58.0723 82.5586 58.4375 82.4492 58.832 82.4492ZM63.4082 89.1172C62.4434 89.1172 61.6855 88.8262 61.1348 88.2441C60.5879 87.6582 60.3145 86.8535 60.3145 85.8301C60.3145 84.7988 60.5703 83.9785 61.082 83.3691C61.5938 82.7559 62.2852 82.4492 63.1562 82.4492C63.9648 82.4492 64.6094 82.7109 65.0898 83.2344C65.5703 83.7539 65.8105 84.459 65.8105 85.3496V85.9883H61.4043C61.4238 86.7188 61.6094 87.2734 61.9609 87.6523C62.3125 88.0312 62.8105 88.2207 63.4551 88.2207C63.7988 88.2207 64.125 88.1914 64.4336 88.1328C64.7422 88.0703 65.1035 87.9512 65.5176 87.7754V88.7012C65.1621 88.8535 64.8281 88.9609 64.5156 89.0234C64.2031 89.0859 63.834 89.1172 63.4082 89.1172ZM63.1445 83.3105C62.6406 83.3105 62.2422 83.4727 61.9492 83.7969C61.6562 84.1211 61.4824 84.5723 61.4277 85.1504H64.7031C64.6953 84.5488 64.5566 84.0918 64.2871 83.7793C64.0176 83.4668 63.6367 83.3105 63.1445 83.3105ZM69.9062 88.2441C70.5352 88.2441 70.9941 88.0723 71.2832 87.7285C71.5723 87.3848 71.7246 86.8164 71.7402 86.0234V85.8066C71.7402 84.9199 71.5918 84.2852 71.2949 83.9023C70.998 83.5156 70.5273 83.3223 69.8828 83.3223C69.332 83.3223 68.9102 83.5391 68.6172 83.9727C68.3242 84.4062 68.1777 85.0215 68.1777 85.8184C68.1777 86.6035 68.3223 87.2051 68.6113 87.623C68.9043 88.0371 69.3359 88.2441 69.9062 88.2441ZM69.7012 89.1172C68.873 89.1172 68.2305 88.8242 67.7734 88.2383C67.3164 87.6523 67.0879 86.8379 67.0879 85.7949C67.0879 84.748 67.3203 83.9297 67.7852 83.3398C68.2539 82.7461 68.9043 82.4492 69.7363 82.4492C70.6152 82.4492 71.2832 82.7812 71.7402 83.4453H71.7871L71.9453 82.5664H72.7832V91.8828H71.7285V89.1348C71.7285 88.7051 71.748 88.373 71.7871 88.1387H71.7168C71.2676 88.791 70.5957 89.1172 69.7012 89.1172ZM75.8242 82.5664V86.709C75.8242 87.2285 75.9395 87.6152 76.1699 87.8691C76.4043 88.1191 76.7656 88.2441 77.2539 88.2441C77.9141 88.2441 78.3945 88.0605 78.6953 87.6934C78.9961 87.3262 79.1465 86.7344 79.1465 85.918V82.5664H80.207V89H79.3398L79.1875 88.1504H79.1348C78.9434 88.459 78.6719 88.6973 78.3203 88.8652C77.9688 89.0332 77.5605 89.1172 77.0957 89.1172C76.3223 89.1172 75.7383 88.9316 75.3438 88.5605C74.9531 88.1895 74.7578 87.5957 74.7578 86.7793V82.5664H75.8242ZM86.2188 89L86.0137 88.0859H85.9668C85.6465 88.4883 85.3262 88.7617 85.0059 88.9062C84.6895 89.0469 84.2891 89.1172 83.8047 89.1172C83.1719 89.1172 82.6758 88.9512 82.3164 88.6191C81.957 88.2871 81.7773 87.8184 81.7773 87.2129C81.7773 85.9082 82.8066 85.2246 84.8652 85.1621L85.9551 85.1211V84.7402C85.9551 84.252 85.8496 83.8926 85.6387 83.6621C85.4277 83.4277 85.0898 83.3105 84.625 83.3105C84.2852 83.3105 83.9629 83.3613 83.6582 83.4629C83.3574 83.5645 83.0742 83.6777 82.8086 83.8027L82.4863 83.0117C82.8105 82.8398 83.1641 82.7051 83.5469 82.6074C83.9297 82.5098 84.3086 82.4609 84.6836 82.4609C85.4609 82.4609 86.0391 82.6328 86.418 82.9766C86.7969 83.3203 86.9863 83.8672 86.9863 84.6172V89H86.2188ZM84.0449 88.2676C84.6348 88.2676 85.0977 88.1094 85.4336 87.793C85.7734 87.4727 85.9434 87.0195 85.9434 86.4336V85.8535L84.9941 85.8945C84.2559 85.9219 83.7168 86.0391 83.377 86.2461C83.041 86.4531 82.873 86.7793 82.873 87.2246C82.873 87.5605 82.9746 87.8184 83.1777 87.998C83.3848 88.1777 83.6738 88.2676 84.0449 88.2676ZM90.0391 89H88.9844V79.8828H90.0391V89ZM93.1328 89H92.0781V82.5664H93.1328V89ZM91.9961 80.8262C91.9961 80.5918 92.0547 80.4219 92.1719 80.3164C92.293 80.2109 92.4414 80.1582 92.6172 80.1582C92.7812 80.1582 92.9238 80.2109 93.0449 80.3164C93.1699 80.4219 93.2324 80.5918 93.2324 80.8262C93.2324 81.0566 93.1699 81.2266 93.0449 81.3359C92.9238 81.4453 92.7812 81.5 92.6172 81.5C92.4414 81.5 92.293 81.4453 92.1719 81.3359C92.0547 81.2266 91.9961 81.0566 91.9961 80.8262ZM98.1367 83.3867H96.5137V89H95.459V83.3867H94.334V82.8945L95.459 82.5312V82.1621C95.459 81.3809 95.6289 80.7949 95.9688 80.4043C96.3125 80.0137 96.8398 79.8184 97.5508 79.8184C97.9609 79.8184 98.377 79.8906 98.7988 80.0352L98.5176 80.8613C98.1543 80.7441 97.8359 80.6855 97.5625 80.6855C97.207 80.6855 96.9434 80.8027 96.7715 81.0371C96.5996 81.2715 96.5137 81.6426 96.5137 82.1504V82.5664H98.1367V83.3867ZM100.363 89H99.3086V82.5664H100.363V89ZM99.2266 80.8262C99.2266 80.5918 99.2852 80.4219 99.4023 80.3164C99.5234 80.2109 99.6719 80.1582 99.8477 80.1582C100.012 80.1582 100.154 80.2109 100.275 80.3164C100.4 80.4219 100.463 80.5918 100.463 80.8262C100.463 81.0566 100.4 81.2266 100.275 81.3359C100.154 81.4453 100.012 81.5 99.8477 81.5C99.6719 81.5 99.5234 81.4453 99.4023 81.3359C99.2852 81.2266 99.2266 81.0566 99.2266 80.8262ZM105.139 89.1172C104.174 89.1172 103.416 88.8262 102.865 88.2441C102.318 87.6582 102.045 86.8535 102.045 85.8301C102.045 84.7988 102.301 83.9785 102.812 83.3691C103.324 82.7559 104.016 82.4492 104.887 82.4492C105.695 82.4492 106.34 82.7109 106.82 83.2344C107.301 83.7539 107.541 84.459 107.541 85.3496V85.9883H103.135C103.154 86.7188 103.34 87.2734 103.691 87.6523C104.043 88.0312 104.541 88.2207 105.186 88.2207C105.529 88.2207 105.855 88.1914 106.164 88.1328C106.473 88.0703 106.834 87.9512 107.248 87.7754V88.7012C106.893 88.8535 106.559 88.9609 106.246 89.0234C105.934 89.0859 105.564 89.1172 105.139 89.1172ZM104.875 83.3105C104.371 83.3105 103.973 83.4727 103.68 83.7969C103.387 84.1211 103.213 84.5723 103.158 85.1504H106.434C106.426 84.5488 106.287 84.0918 106.018 83.7793C105.748 83.4668 105.367 83.3105 104.875 83.3105ZM111.455 89.1172C110.619 89.1172 109.971 88.8281 109.51 88.25C109.049 87.6719 108.818 86.8535 108.818 85.7949C108.818 84.7441 109.049 83.9238 109.51 83.334C109.975 82.7441 110.627 82.4492 111.467 82.4492C112.33 82.4492 112.994 82.7656 113.459 83.3984H113.535C113.523 83.3203 113.508 83.1641 113.488 82.9297C113.469 82.6914 113.459 82.5312 113.459 82.4492V79.8828H114.514V89H113.664L113.506 88.1387H113.459C113.01 88.791 112.342 89.1172 111.455 89.1172ZM111.625 88.2441C112.266 88.2441 112.732 88.0703 113.025 87.7227C113.322 87.3711 113.471 86.7969 113.471 86V85.8066C113.471 84.9121 113.32 84.2754 113.02 83.8965C112.723 83.5137 112.254 83.3223 111.613 83.3223C111.07 83.3223 110.65 83.5391 110.354 83.9727C110.057 84.4023 109.908 85.0176 109.908 85.8184C109.908 86.6152 110.055 87.2188 110.348 87.6289C110.645 88.0391 111.07 88.2441 111.625 88.2441Z" fill="#F4F4F4"/>
<defs>
<linearGradient id="paint0_linear_297_481" x1="-620.151" y1="562.625" x2="-224.909" y2="-187.641" gradientUnits="userSpaceOnUse">
<stop stop-color="#00CD21"/>
<stop offset="1" stop-color="#00CD21" stop-opacity="0.1"/>
</linearGradient>
<linearGradient id="paint1_linear_297_481" x1="71.454" y1="30.9089" x2="71.454" y2="49.745" gradientUnits="userSpaceOnUse">
<stop stop-color="#17AC0A"/>
<stop offset="1" stop-color="#17AC0A" stop-opacity="0.3"/>
</linearGradient>
</defs>
</svg>
