<svg width="140" height="112" viewBox="0 0 140 112" fill="none" xmlns="http://www.w3.org/2000/svg">
<rect width="140" height="112" rx="7.16981" transform="matrix(-1 0 0 1 140 0)" fill="url(#paint0_linear_297_461)"/>
<path d="M17.1445 80.4336H18.2754L20.2031 85.9297C20.4492 86.625 20.6289 87.248 20.7422 87.7988C20.8398 87.3066 21.0215 86.6758 21.2871 85.9062L23.2031 80.4336H24.3457L21.2871 89H20.2031L17.1445 80.4336ZM27.9902 89.1172C27.0254 89.1172 26.2676 88.8262 25.7168 88.2441C25.1699 87.6582 24.8965 86.8535 24.8965 85.8301C24.8965 84.7988 25.1523 83.9785 25.6641 83.3691C26.1758 82.7559 26.8672 82.4492 27.7383 82.4492C28.5469 82.4492 29.1914 82.7109 29.6719 83.2344C30.1523 83.7539 30.3926 84.459 30.3926 85.3496V85.9883H25.9863C26.0059 86.7188 26.1914 87.2734 26.543 87.6523C26.8945 88.0312 27.3926 88.2207 28.0371 88.2207C28.3809 88.2207 28.707 88.1914 29.0156 88.1328C29.3242 88.0703 29.6855 87.9512 30.0996 87.7754V88.7012C29.7441 88.8535 29.4102 88.9609 29.0977 89.0234C28.7852 89.0859 28.416 89.1172 27.9902 89.1172ZM27.7266 83.3105C27.2227 83.3105 26.8242 83.4727 26.5312 83.7969C26.2383 84.1211 26.0645 84.5723 26.0098 85.1504H29.2852C29.2773 84.5488 29.1387 84.0918 28.8691 83.7793C28.5996 83.4668 28.2188 83.3105 27.7266 83.3105ZM35.0273 82.4492C35.3125 82.4492 35.5645 82.4727 35.7832 82.5195L35.6543 83.4922C35.416 83.4375 35.1836 83.4102 34.957 83.4102C34.6172 83.4102 34.3008 83.5039 34.0078 83.6914C33.7188 83.8789 33.4922 84.1387 33.3281 84.4707C33.1641 84.7988 33.082 85.1641 33.082 85.5664V89H32.0273V82.5664H32.8945L33.0117 83.7441H33.0586C33.3047 83.3184 33.5957 82.9961 33.9316 82.7773C34.2676 82.5586 34.6328 82.4492 35.0273 82.4492ZM38.0391 89H36.9844V82.5664H38.0391V89ZM36.9023 80.8262C36.9023 80.5918 36.9609 80.4219 37.0781 80.3164C37.1992 80.2109 37.3477 80.1582 37.5234 80.1582C37.6875 80.1582 37.8301 80.2109 37.9512 80.3164C38.0762 80.4219 38.1387 80.5918 38.1387 80.8262C38.1387 81.0566 38.0762 81.2266 37.9512 81.3359C37.8301 81.4453 37.6875 81.5 37.5234 81.5C37.3477 81.5 37.1992 81.4453 37.0781 81.3359C36.9609 81.2266 36.9023 81.0566 36.9023 80.8262ZM43.043 83.3867H41.4199V89H40.3652V83.3867H39.2402V82.8945L40.3652 82.5312V82.1621C40.3652 81.3809 40.5352 80.7949 40.875 80.4043C41.2188 80.0137 41.7461 79.8184 42.457 79.8184C42.8672 79.8184 43.2832 79.8906 43.7051 80.0352L43.4238 80.8613C43.0605 80.7441 42.7422 80.6855 42.4688 80.6855C42.1133 80.6855 41.8496 80.8027 41.6777 81.0371C41.5059 81.2715 41.4199 81.6426 41.4199 82.1504V82.5664H43.043V83.3867ZM43.207 82.5664H44.3379L45.7266 86.2285C46.0195 87.0254 46.1992 87.6094 46.2656 87.9805H46.3125C46.3477 87.8359 46.4277 87.5664 46.5527 87.1719C46.6777 86.7734 46.7832 86.4551 46.8691 86.2168L48.1758 82.5664H49.3125L46.541 89.8906C46.2715 90.6016 45.9512 91.1113 45.5801 91.4199C45.209 91.7285 44.75 91.8828 44.2031 91.8828C43.9102 91.8828 43.6191 91.8496 43.3301 91.7832V90.9453C43.5254 90.9922 43.7598 91.0156 44.0332 91.0156C44.3691 91.0156 44.6543 90.9219 44.8887 90.7344C45.123 90.5508 45.3145 90.2656 45.4629 89.8789L45.7969 89.0234L43.207 82.5664ZM52.4414 82.5664H53.5723L54.9609 86.2285C55.2539 87.0254 55.4336 87.6094 55.5 87.9805H55.5469C55.582 87.8359 55.6621 87.5664 55.7871 87.1719C55.9121 86.7734 56.0176 86.4551 56.1035 86.2168L57.4102 82.5664H58.5469L55.7754 89.8906C55.5059 90.6016 55.1855 91.1113 54.8145 91.4199C54.4434 91.7285 53.9844 91.8828 53.4375 91.8828C53.1445 91.8828 52.8535 91.8496 52.5645 91.7832V90.9453C52.7598 90.9922 52.9941 91.0156 53.2676 91.0156C53.6035 91.0156 53.8887 90.9219 54.123 90.7344C54.3574 90.5508 54.5488 90.2656 54.6973 89.8789L55.0312 89.0234L52.4414 82.5664ZM65.1562 85.7715C65.1562 86.8223 64.8906 87.6426 64.3594 88.2324C63.8281 88.8223 63.0938 89.1172 62.1562 89.1172C61.5742 89.1172 61.0586 88.9824 60.6094 88.7129C60.1602 88.4395 59.8145 88.0488 59.5723 87.541C59.3301 87.0332 59.209 86.4434 59.209 85.7715C59.209 84.7246 59.4707 83.9102 59.9941 83.3281C60.5176 82.7422 61.252 82.4492 62.1973 82.4492C63.1035 82.4492 63.8223 82.748 64.3535 83.3457C64.8887 83.9395 65.1562 84.748 65.1562 85.7715ZM60.2988 85.7715C60.2988 86.5801 60.457 87.1953 60.7734 87.6172C61.0938 88.0352 61.5645 88.2441 62.1855 88.2441C62.7988 88.2441 63.2656 88.0352 63.5859 87.6172C63.9062 87.1953 64.0664 86.5801 64.0664 85.7715C64.0664 84.9629 63.9043 84.3555 63.5801 83.9492C63.2598 83.5391 62.7891 83.334 62.168 83.334C60.9219 83.334 60.2988 84.1465 60.2988 85.7715ZM67.8281 82.5664V86.709C67.8281 87.2285 67.9434 87.6152 68.1738 87.8691C68.4082 88.1191 68.7695 88.2441 69.2578 88.2441C69.918 88.2441 70.3984 88.0605 70.6992 87.6934C71 87.3262 71.1504 86.7344 71.1504 85.918V82.5664H72.2109V89H71.3438L71.1914 88.1504H71.1387C70.9473 88.459 70.6758 88.6973 70.3242 88.8652C69.9727 89.0332 69.5645 89.1172 69.0996 89.1172C68.3262 89.1172 67.7422 88.9316 67.3477 88.5605C66.957 88.1895 66.7617 87.5957 66.7617 86.7793V82.5664H67.8281ZM77.25 82.4492C77.5352 82.4492 77.7871 82.4727 78.0059 82.5195L77.877 83.4922C77.6387 83.4375 77.4062 83.4102 77.1797 83.4102C76.8398 83.4102 76.5234 83.5039 76.2305 83.6914C75.9414 83.8789 75.7148 84.1387 75.5508 84.4707C75.3867 84.7988 75.3047 85.1641 75.3047 85.5664V89H74.25V82.5664H75.1172L75.2344 83.7441H75.2812C75.5273 83.3184 75.8184 82.9961 76.1543 82.7773C76.4902 82.5586 76.8555 82.4492 77.25 82.4492ZM83.3789 89H82.3242V82.5664H83.3789V89ZM82.2422 80.8262C82.2422 80.5918 82.3008 80.4219 82.418 80.3164C82.5391 80.2109 82.6875 80.1582 82.8633 80.1582C83.0273 80.1582 83.1699 80.2109 83.291 80.3164C83.416 80.4219 83.4785 80.5918 83.4785 80.8262C83.4785 81.0566 83.416 81.2266 83.291 81.3359C83.1699 81.4453 83.0273 81.5 82.8633 81.5C82.6875 81.5 82.5391 81.4453 82.418 81.3359C82.3008 81.2266 82.2422 81.0566 82.2422 80.8262ZM87.6973 89.1172C86.8613 89.1172 86.2129 88.8281 85.752 88.25C85.291 87.6719 85.0605 86.8535 85.0605 85.7949C85.0605 84.7441 85.291 83.9238 85.752 83.334C86.2168 82.7441 86.8691 82.4492 87.709 82.4492C88.5723 82.4492 89.2363 82.7656 89.7012 83.3984H89.7773C89.7656 83.3203 89.75 83.1641 89.7305 82.9297C89.7109 82.6914 89.7012 82.5312 89.7012 82.4492V79.8828H90.7559V89H89.9062L89.748 88.1387H89.7012C89.252 88.791 88.584 89.1172 87.6973 89.1172ZM87.8672 88.2441C88.5078 88.2441 88.9746 88.0703 89.2676 87.7227C89.5645 87.3711 89.7129 86.7969 89.7129 86V85.8066C89.7129 84.9121 89.5625 84.2754 89.2617 83.8965C88.9648 83.5137 88.4961 83.3223 87.8555 83.3223C87.3125 83.3223 86.8926 83.5391 86.5957 83.9727C86.2988 84.4023 86.1504 85.0176 86.1504 85.8184C86.1504 86.6152 86.2969 87.2188 86.5898 87.6289C86.8867 88.0391 87.3125 88.2441 87.8672 88.2441ZM95.5371 89.1172C94.5723 89.1172 93.8145 88.8262 93.2637 88.2441C92.7168 87.6582 92.4434 86.8535 92.4434 85.8301C92.4434 84.7988 92.6992 83.9785 93.2109 83.3691C93.7227 82.7559 94.4141 82.4492 95.2852 82.4492C96.0938 82.4492 96.7383 82.7109 97.2188 83.2344C97.6992 83.7539 97.9395 84.459 97.9395 85.3496V85.9883H93.5332C93.5527 86.7188 93.7383 87.2734 94.0898 87.6523C94.4414 88.0312 94.9395 88.2207 95.584 88.2207C95.9277 88.2207 96.2539 88.1914 96.5625 88.1328C96.8711 88.0703 97.2324 87.9512 97.6465 87.7754V88.7012C97.291 88.8535 96.957 88.9609 96.6445 89.0234C96.332 89.0859 95.9629 89.1172 95.5371 89.1172ZM95.2734 83.3105C94.7695 83.3105 94.3711 83.4727 94.0781 83.7969C93.7852 84.1211 93.6113 84.5723 93.5566 85.1504H96.832C96.8242 84.5488 96.6855 84.0918 96.416 83.7793C96.1465 83.4668 95.7656 83.3105 95.2734 83.3105ZM103.957 89V84.8867C103.957 84.3633 103.84 83.9746 103.605 83.7207C103.375 83.4629 103.012 83.334 102.516 83.334C101.855 83.334 101.375 83.5176 101.074 83.8848C100.777 84.248 100.629 84.8418 100.629 85.666V89H99.5742V82.5664H100.424L100.582 83.4453H100.641C100.84 83.1289 101.119 82.8848 101.479 82.7129C101.838 82.5371 102.234 82.4492 102.668 82.4492C103.457 82.4492 104.043 82.6406 104.426 83.0234C104.809 83.4062 105 84.002 105 84.8105V89H103.957ZM109.143 88.2559C109.279 88.2559 109.439 88.2422 109.623 88.2148C109.807 88.1875 109.945 88.1562 110.039 88.1211V88.9297C109.941 88.9727 109.789 89.0137 109.582 89.0527C109.379 89.0957 109.172 89.1172 108.961 89.1172C107.703 89.1172 107.074 88.4551 107.074 87.1309V83.3867H106.166V82.8828L107.086 82.4609L107.508 81.0898H108.135V82.5664H109.992V83.3867H108.135V87.1016C108.135 87.4727 108.223 87.7578 108.398 87.957C108.578 88.1562 108.826 88.2559 109.143 88.2559ZM112.383 89H111.328V82.5664H112.383V89ZM111.246 80.8262C111.246 80.5918 111.305 80.4219 111.422 80.3164C111.543 80.2109 111.691 80.1582 111.867 80.1582C112.031 80.1582 112.174 80.2109 112.295 80.3164C112.42 80.4219 112.482 80.5918 112.482 80.8262C112.482 81.0566 112.42 81.2266 112.295 81.3359C112.174 81.4453 112.031 81.5 111.867 81.5C111.691 81.5 111.543 81.4453 111.422 81.3359C111.305 81.2266 111.246 81.0566 111.246 80.8262ZM116.572 88.2559C116.709 88.2559 116.869 88.2422 117.053 88.2148C117.236 88.1875 117.375 88.1562 117.469 88.1211V88.9297C117.371 88.9727 117.219 89.0137 117.012 89.0527C116.809 89.0957 116.602 89.1172 116.391 89.1172C115.133 89.1172 114.504 88.4551 114.504 87.1309V83.3867H113.596V82.8828L114.516 82.4609L114.938 81.0898H115.564V82.5664H117.422V83.3867H115.564V87.1016C115.564 87.4727 115.652 87.7578 115.828 87.957C116.008 88.1562 116.256 88.2559 116.572 88.2559ZM117.75 82.5664H118.881L120.27 86.2285C120.562 87.0254 120.742 87.6094 120.809 87.9805H120.855C120.891 87.8359 120.971 87.5664 121.096 87.1719C121.221 86.7734 121.326 86.4551 121.412 86.2168L122.719 82.5664H123.855L121.084 89.8906C120.814 90.6016 120.494 91.1113 120.123 91.4199C119.752 91.7285 119.293 91.8828 118.746 91.8828C118.453 91.8828 118.162 91.8496 117.873 91.7832V90.9453C118.068 90.9922 118.303 91.0156 118.576 91.0156C118.912 91.0156 119.197 90.9219 119.432 90.7344C119.666 90.5508 119.857 90.2656 120.006 89.8789L120.34 89.0234L117.75 82.5664Z" fill="#F4F4F4"/>
<circle cx="70" cy="40" r="20" fill="#FF9F0A" fill-opacity="0.1"/>
<path d="M65.0002 50C64.6214 50 64.2994 49.8674 64.0343 49.6023C63.7691 49.3371 63.6365 49.0152 63.6365 48.6364V31.3636C63.6365 30.9848 63.7691 30.6629 64.0343 30.3977C64.2994 30.1326 64.6214 30 65.0002 30H75.0002C75.379 30 75.7009 30.1326 75.9661 30.3977C76.2312 30.6629 76.3638 30.9848 76.3638 31.3636V48.6364C76.3638 49.0152 76.2312 49.3371 75.9661 49.6023C75.7009 49.8674 75.379 50 75.0002 50H65.0002ZM65.0002 47.9545V48.6364H75.0002V47.9545H65.0002ZM65.0002 32.0455H75.0002V31.3636H65.0002V32.0455ZM70.0002 44.0909C69.0911 44.0909 68.2123 44.2273 67.3638 44.5C66.5153 44.7727 65.7274 45.1288 65.0002 45.5682V46.5909H75.0002V45.5682C74.2729 45.1288 73.485 44.7727 72.6365 44.5C71.788 44.2273 70.9093 44.0909 70.0002 44.0909ZM70.0002 42.7273C70.9093 42.7273 71.7843 42.8447 72.6252 43.0795C73.4661 43.3144 74.2577 43.6364 75.0002 44.0455V33.4091H65.0002V44.0455C65.7577 43.6364 66.5532 43.3144 67.3865 43.0795C68.2199 42.8447 69.0911 42.7273 70.0002 42.7273ZM70.0229 41.2955C70.7502 41.2955 71.3714 41.0379 71.8865 40.5227C72.4017 40.0076 72.6593 39.3864 72.6593 38.6591C72.6593 37.9318 72.4017 37.3106 71.8865 36.7955C71.3714 36.2803 70.7502 36.0227 70.0229 36.0227C69.2956 36.0227 68.6744 36.2803 68.1593 36.7955C67.6441 37.3106 67.3865 37.9318 67.3865 38.6591C67.3865 39.3864 67.6441 40.0076 68.1593 40.5227C68.6744 41.0379 69.2956 41.2955 70.0229 41.2955ZM70.0229 39.9318C69.6744 39.9318 69.3752 39.8068 69.1252 39.5568C68.8752 39.3068 68.7502 39.0076 68.7502 38.6591C68.7502 38.3106 68.8752 38.0114 69.1252 37.7614C69.3752 37.5114 69.6744 37.3864 70.0229 37.3864C70.3714 37.3864 70.6706 37.5114 70.9206 37.7614C71.1706 38.0114 71.2956 38.3106 71.2956 38.6591C71.2956 39.0076 71.1706 39.3068 70.9206 39.5568C70.6706 39.8068 70.3714 39.9318 70.0229 39.9318ZM70.0002 46.5909H75.0002H65.0002H70.0002Z" fill="url(#paint1_linear_297_461)"/>
<defs>
<linearGradient id="paint0_linear_297_461" x1="-620.151" y1="562.625" x2="-224.909" y2="-187.641" gradientUnits="userSpaceOnUse">
<stop stop-color="#FF9F0A"/>
<stop offset="1" stop-color="#FF9F0A" stop-opacity="0.1"/>
</linearGradient>
<linearGradient id="paint1_linear_297_461" x1="70.0002" y1="30" x2="70.0002" y2="50" gradientUnits="userSpaceOnUse">
<stop stop-color="#FF9F0A"/>
<stop offset="1" stop-color="#FF9F0A" stop-opacity="0.3"/>
</linearGradient>
</defs>
</svg>
