<svg width="40" height="40" viewBox="0 0 40 40" fill="none" xmlns="http://www.w3.org/2000/svg">
<circle cx="20" cy="20" r="20" fill="#FF9F0A" fill-opacity="0.1"/>
<path d="M15.0002 30C14.6214 30 14.2994 29.8674 14.0343 29.6023C13.7691 29.3371 13.6365 29.0152 13.6365 28.6364V11.3636C13.6365 10.9848 13.7691 10.6629 14.0343 10.3977C14.2994 10.1326 14.6214 10 15.0002 10H25.0002C25.379 10 25.7009 10.1326 25.9661 10.3977C26.2312 10.6629 26.3638 10.9848 26.3638 11.3636V28.6364C26.3638 29.0152 26.2312 29.3371 25.9661 29.6023C25.7009 29.8674 25.379 30 25.0002 30H15.0002ZM15.0002 27.9545V28.6364H25.0002V27.9545H15.0002ZM15.0002 12.0455H25.0002V11.3636H15.0002V12.0455ZM20.0002 24.0909C19.0911 24.0909 18.2123 24.2273 17.3638 24.5C16.5153 24.7727 15.7274 25.1288 15.0002 25.5682V26.5909H25.0002V25.5682C24.2729 25.1288 23.485 24.7727 22.6365 24.5C21.788 24.2273 20.9093 24.0909 20.0002 24.0909ZM20.0002 22.7273C20.9093 22.7273 21.7843 22.8447 22.6252 23.0795C23.4661 23.3144 24.2577 23.6364 25.0002 24.0455V13.4091H15.0002V24.0455C15.7577 23.6364 16.5532 23.3144 17.3865 23.0795C18.2199 22.8447 19.0911 22.7273 20.0002 22.7273ZM20.0229 21.2955C20.7502 21.2955 21.3714 21.0379 21.8865 20.5227C22.4017 20.0076 22.6593 19.3864 22.6593 18.6591C22.6593 17.9318 22.4017 17.3106 21.8865 16.7955C21.3714 16.2803 20.7502 16.0227 20.0229 16.0227C19.2956 16.0227 18.6744 16.2803 18.1593 16.7955C17.6441 17.3106 17.3865 17.9318 17.3865 18.6591C17.3865 19.3864 17.6441 20.0076 18.1593 20.5227C18.6744 21.0379 19.2956 21.2955 20.0229 21.2955ZM20.0229 19.9318C19.6744 19.9318 19.3752 19.8068 19.1252 19.5568C18.8752 19.3068 18.7502 19.0076 18.7502 18.6591C18.7502 18.3106 18.8752 18.0114 19.1252 17.7614C19.3752 17.5114 19.6744 17.3864 20.0229 17.3864C20.3714 17.3864 20.6706 17.5114 20.9206 17.7614C21.1706 18.0114 21.2956 18.3106 21.2956 18.6591C21.2956 19.0076 21.1706 19.3068 20.9206 19.5568C20.6706 19.8068 20.3714 19.9318 20.0229 19.9318ZM20.0002 26.5909H25.0002H15.0002H20.0002Z" fill="url(#paint0_linear_297_467)"/>
<defs>
<linearGradient id="paint0_linear_297_467" x1="20.0002" y1="10" x2="20.0002" y2="30" gradientUnits="userSpaceOnUse">
<stop stop-color="#FF9F0A"/>
<stop offset="1" stop-color="#FF9F0A" stop-opacity="0.3"/>
</linearGradient>
</defs>
</svg>
