<svg width="140" height="112" viewBox="0 0 140 112" fill="none" xmlns="http://www.w3.org/2000/svg">
<rect width="140" height="112" rx="7.16981" transform="matrix(-1 0 0 1 140 0)" fill="url(#paint0_linear_297_471)"/>
<path d="M40.2109 78.7051C40.2109 80.0762 39.8633 81.1543 39.168 81.9395C38.4766 82.7246 37.5078 83.1172 36.2617 83.1172C35 83.1172 34.0234 82.7324 33.332 81.9629C32.6445 81.1895 32.3008 80.0996 32.3008 78.6934C32.3008 77.2988 32.6426 76.2188 33.3262 75.4531C34.0137 74.6836 34.9961 74.2988 36.2734 74.2988C37.5156 74.2988 38.4824 74.6895 39.1738 75.4707C39.8652 76.248 40.2109 77.3262 40.2109 78.7051ZM33.4375 78.7051C33.4375 79.8379 33.6777 80.7012 34.1582 81.2949C34.6387 81.8887 35.3398 82.1855 36.2617 82.1855C37.1797 82.1855 37.877 81.8926 38.3535 81.3066C38.8301 80.7207 39.0684 79.8535 39.0684 78.7051C39.0684 77.5605 38.832 76.6992 38.3594 76.1211C37.8867 75.5391 37.1914 75.248 36.2734 75.248C35.3438 75.248 34.6387 75.543 34.1582 76.1328C33.6777 76.7188 33.4375 77.5762 33.4375 78.7051ZM45.0098 83.1172C44.1465 83.1172 43.4824 82.8066 43.0176 82.1855H42.9473L42.9707 82.4258C43.002 82.7305 43.0176 83.002 43.0176 83.2402V85.8828H41.9629V76.5664H42.8301L42.9707 77.4453H43.0176C43.2676 77.0938 43.5566 76.8398 43.8848 76.6836C44.2129 76.5273 44.5918 76.4492 45.0215 76.4492C45.8574 76.4492 46.5059 76.7402 46.9668 77.3223C47.4316 77.9004 47.6641 78.7168 47.6641 79.7715C47.6641 80.8223 47.4316 81.6426 46.9668 82.2324C46.502 82.8223 45.8496 83.1172 45.0098 83.1172ZM44.834 77.334C44.1973 77.334 43.7363 77.5137 43.4512 77.873C43.1699 78.2324 43.0254 78.7969 43.0176 79.5664V79.7715C43.0176 80.6426 43.1621 81.2734 43.4512 81.6641C43.7402 82.0508 44.209 82.2441 44.8574 82.2441C45.3965 82.2441 45.8164 82.0254 46.1172 81.5879C46.4219 81.1504 46.5742 80.541 46.5742 79.7598C46.5742 78.9746 46.4219 78.375 46.1172 77.9609C45.8164 77.543 45.3887 77.334 44.834 77.334ZM52.082 83.1172C51.1172 83.1172 50.3594 82.8262 49.8086 82.2441C49.2617 81.6582 48.9883 80.8535 48.9883 79.8301C48.9883 78.7988 49.2441 77.9785 49.7559 77.3691C50.2676 76.7559 50.959 76.4492 51.8301 76.4492C52.6387 76.4492 53.2832 76.7109 53.7637 77.2344C54.2441 77.7539 54.4844 78.459 54.4844 79.3496V79.9883H50.0781C50.0977 80.7188 50.2832 81.2734 50.6348 81.6523C50.9863 82.0312 51.4844 82.2207 52.1289 82.2207C52.4727 82.2207 52.7988 82.1914 53.1074 82.1328C53.416 82.0703 53.7773 81.9512 54.1914 81.7754V82.7012C53.8359 82.8535 53.502 82.9609 53.1895 83.0234C52.877 83.0859 52.5078 83.1172 52.082 83.1172ZM51.8184 77.3105C51.3145 77.3105 50.916 77.4727 50.623 77.7969C50.3301 78.1211 50.1562 78.5723 50.1016 79.1504H53.377C53.3691 78.5488 53.2305 78.0918 52.9609 77.7793C52.6914 77.4668 52.3105 77.3105 51.8184 77.3105ZM60.502 83V78.8867C60.502 78.3633 60.3848 77.9746 60.1504 77.7207C59.9199 77.4629 59.5566 77.334 59.0605 77.334C58.4004 77.334 57.9199 77.5176 57.6191 77.8848C57.3223 78.248 57.1738 78.8418 57.1738 79.666V83H56.1191V76.5664H56.9688L57.127 77.4453H57.1855C57.3848 77.1289 57.6641 76.8848 58.0234 76.7129C58.3828 76.5371 58.7793 76.4492 59.2129 76.4492C60.002 76.4492 60.5879 76.6406 60.9707 77.0234C61.3535 77.4062 61.5449 78.002 61.5449 78.8105V83H60.502ZM70.627 83L70.4219 82.0859H70.375C70.0547 82.4883 69.7344 82.7617 69.4141 82.9062C69.0977 83.0469 68.6973 83.1172 68.2129 83.1172C67.5801 83.1172 67.084 82.9512 66.7246 82.6191C66.3652 82.2871 66.1855 81.8184 66.1855 81.2129C66.1855 79.9082 67.2148 79.2246 69.2734 79.1621L70.3633 79.1211V78.7402C70.3633 78.252 70.2578 77.8926 70.0469 77.6621C69.8359 77.4277 69.498 77.3105 69.0332 77.3105C68.6934 77.3105 68.3711 77.3613 68.0664 77.4629C67.7656 77.5645 67.4824 77.6777 67.2168 77.8027L66.8945 77.0117C67.2188 76.8398 67.5723 76.7051 67.9551 76.6074C68.3379 76.5098 68.7168 76.4609 69.0918 76.4609C69.8691 76.4609 70.4473 76.6328 70.8262 76.9766C71.2051 77.3203 71.3945 77.8672 71.3945 78.6172V83H70.627ZM68.4531 82.2676C69.043 82.2676 69.5059 82.1094 69.8418 81.793C70.1816 81.4727 70.3516 81.0195 70.3516 80.4336V79.8535L69.4023 79.8945C68.6641 79.9219 68.125 80.0391 67.7852 80.2461C67.4492 80.4531 67.2812 80.7793 67.2812 81.2246C67.2812 81.5605 67.3828 81.8184 67.5859 81.998C67.793 82.1777 68.082 82.2676 68.4531 82.2676ZM80.4355 83L77.6113 75.4883H77.5645C77.623 76.1133 77.6523 76.8848 77.6523 77.8027V83H76.6562V74.4336H78.25L80.8926 81.4531H80.9395L83.6289 74.4336H85.2109V83H84.1445V77.7324C84.1445 77.1465 84.1719 76.4023 84.2266 75.5H84.1797L81.3203 83H80.4355ZM91.3691 83L91.1641 82.0859H91.1172C90.7969 82.4883 90.4766 82.7617 90.1562 82.9062C89.8398 83.0469 89.4395 83.1172 88.9551 83.1172C88.3223 83.1172 87.8262 82.9512 87.4668 82.6191C87.1074 82.2871 86.9277 81.8184 86.9277 81.2129C86.9277 79.9082 87.957 79.2246 90.0156 79.1621L91.1055 79.1211V78.7402C91.1055 78.252 91 77.8926 90.7891 77.6621C90.5781 77.4277 90.2402 77.3105 89.7754 77.3105C89.4355 77.3105 89.1133 77.3613 88.8086 77.4629C88.5078 77.5645 88.2246 77.6777 87.959 77.8027L87.6367 77.0117C87.9609 76.8398 88.3145 76.7051 88.6973 76.6074C89.0801 76.5098 89.459 76.4609 89.834 76.4609C90.6113 76.4609 91.1895 76.6328 91.5684 76.9766C91.9473 77.3203 92.1367 77.8672 92.1367 78.6172V83H91.3691ZM89.1953 82.2676C89.7852 82.2676 90.248 82.1094 90.584 81.793C90.9238 81.4727 91.0938 81.0195 91.0938 80.4336V79.8535L90.1445 79.8945C89.4062 79.9219 88.8672 80.0391 88.5273 80.2461C88.1914 80.4531 88.0234 80.7793 88.0234 81.2246C88.0234 81.5605 88.125 81.8184 88.3281 81.998C88.5352 82.1777 88.8242 82.2676 89.1953 82.2676ZM97.1348 76.4492C97.4199 76.4492 97.6719 76.4727 97.8906 76.5195L97.7617 77.4922C97.5234 77.4375 97.291 77.4102 97.0645 77.4102C96.7246 77.4102 96.4082 77.5039 96.1152 77.6914C95.8262 77.8789 95.5996 78.1387 95.4355 78.4707C95.2715 78.7988 95.1895 79.1641 95.1895 79.5664V83H94.1348V76.5664H95.002L95.1191 77.7441H95.166C95.4121 77.3184 95.7031 76.9961 96.0391 76.7773C96.375 76.5586 96.7402 76.4492 97.1348 76.4492ZM100.146 83H99.0918V73.8828H100.146V83ZM107.775 79.7715C107.775 80.8223 107.51 81.6426 106.979 82.2324C106.447 82.8223 105.713 83.1172 104.775 83.1172C104.193 83.1172 103.678 82.9824 103.229 82.7129C102.779 82.4395 102.434 82.0488 102.191 81.541C101.949 81.0332 101.828 80.4434 101.828 79.7715C101.828 78.7246 102.09 77.9102 102.613 77.3281C103.137 76.7422 103.871 76.4492 104.816 76.4492C105.723 76.4492 106.441 76.748 106.973 77.3457C107.508 77.9395 107.775 78.748 107.775 79.7715ZM102.918 79.7715C102.918 80.5801 103.076 81.1953 103.393 81.6172C103.713 82.0352 104.184 82.2441 104.805 82.2441C105.418 82.2441 105.885 82.0352 106.205 81.6172C106.525 81.1953 106.686 80.5801 106.686 79.7715C106.686 78.9629 106.523 78.3555 106.199 77.9492C105.879 77.5391 105.408 77.334 104.787 77.334C103.541 77.334 102.918 78.1465 102.918 79.7715ZM25.4805 92.4609C26.3281 92.4609 26.9824 92.7539 27.4434 93.3398C27.9043 93.9219 28.1348 94.7363 28.1348 95.7832C28.1348 96.8457 27.9004 97.668 27.4316 98.25C26.9629 98.8281 26.3125 99.1172 25.4805 99.1172C25.0469 99.1172 24.6602 99.0391 24.3203 98.8828C23.9805 98.7266 23.7031 98.4941 23.4883 98.1855H23.4062C23.2852 98.6543 23.2129 98.9258 23.1895 99H22.4336V89.8828H23.4883V92.0977C23.4883 92.5391 23.4688 92.9805 23.4297 93.4219H23.4883C23.9219 92.7812 24.5859 92.4609 25.4805 92.4609ZM25.3047 93.334C24.6562 93.334 24.1914 93.5176 23.9102 93.8848C23.6289 94.252 23.4883 94.873 23.4883 95.748V95.7949C23.4883 96.6738 23.6309 97.3027 23.916 97.6816C24.2051 98.0566 24.6758 98.2441 25.3281 98.2441C25.9062 98.2441 26.3359 98.0332 26.6172 97.6113C26.9023 97.1855 27.0449 96.5723 27.0449 95.7715C27.0449 94.959 26.9023 94.3496 26.6172 93.9434C26.332 93.5371 25.8945 93.334 25.3047 93.334ZM30.8125 92.5664V96.709C30.8125 97.2285 30.9277 97.6152 31.1582 97.8691C31.3926 98.1191 31.7539 98.2441 32.2422 98.2441C32.9023 98.2441 33.3828 98.0605 33.6836 97.6934C33.9844 97.3262 34.1348 96.7344 34.1348 95.918V92.5664H35.1953V99H34.3281L34.1758 98.1504H34.123C33.9316 98.459 33.6602 98.6973 33.3086 98.8652C32.957 99.0332 32.5488 99.1172 32.084 99.1172C31.3105 99.1172 30.7266 98.9316 30.332 98.5605C29.9414 98.1895 29.7461 97.5957 29.7461 96.7793V92.5664H30.8125ZM41.4238 97.2246C41.4238 97.8262 41.1992 98.293 40.75 98.625C40.3008 98.9531 39.6699 99.1172 38.8574 99.1172C38.0098 99.1172 37.3359 98.9824 36.8359 98.7129V97.752C37.543 98.0957 38.2246 98.2676 38.8809 98.2676C39.4121 98.2676 39.7988 98.1816 40.041 98.0098C40.2832 97.8379 40.4043 97.6074 40.4043 97.3184C40.4043 97.0645 40.2871 96.8496 40.0527 96.6738C39.8223 96.498 39.4102 96.2969 38.8164 96.0703C38.2109 95.8359 37.7852 95.6367 37.5391 95.4727C37.293 95.3047 37.1113 95.1172 36.9941 94.9102C36.8809 94.7031 36.8242 94.4512 36.8242 94.1543C36.8242 93.627 37.0391 93.2109 37.4688 92.9062C37.8984 92.6016 38.4883 92.4492 39.2383 92.4492C39.9688 92.4492 40.6523 92.5938 41.2891 92.8828L40.9316 93.7207C40.2793 93.4473 39.6914 93.3105 39.168 93.3105C38.7305 93.3105 38.3984 93.3809 38.1719 93.5215C37.9453 93.6582 37.832 93.8477 37.832 94.0898C37.832 94.3242 37.9297 94.5195 38.125 94.6758C38.3203 94.8281 38.7754 95.041 39.4902 95.3145C40.0254 95.5137 40.4199 95.6992 40.6738 95.8711C40.9316 96.043 41.1211 96.2363 41.2422 96.4512C41.3633 96.666 41.4238 96.9238 41.4238 97.2246ZM44.043 99H42.9883V92.5664H44.043V99ZM42.9062 90.8262C42.9062 90.5918 42.9648 90.4219 43.082 90.3164C43.2031 90.2109 43.3516 90.1582 43.5273 90.1582C43.6914 90.1582 43.834 90.2109 43.9551 90.3164C44.0801 90.4219 44.1426 90.5918 44.1426 90.8262C44.1426 91.0566 44.0801 91.2266 43.9551 91.3359C43.834 91.4453 43.6914 91.5 43.5273 91.5C43.3516 91.5 43.2031 91.4453 43.082 91.3359C42.9648 91.2266 42.9062 91.0566 42.9062 90.8262ZM50.4648 99V94.8867C50.4648 94.3633 50.3477 93.9746 50.1133 93.7207C49.8828 93.4629 49.5195 93.334 49.0234 93.334C48.3633 93.334 47.8828 93.5176 47.582 93.8848C47.2852 94.248 47.1367 94.8418 47.1367 95.666V99H46.082V92.5664H46.9316L47.0898 93.4453H47.1484C47.3477 93.1289 47.627 92.8848 47.9863 92.7129C48.3457 92.5371 48.7422 92.4492 49.1758 92.4492C49.9648 92.4492 50.5508 92.6406 50.9336 93.0234C51.3164 93.4062 51.5078 94.002 51.5078 94.8105V99H50.4648ZM56.2363 99.1172C55.2715 99.1172 54.5137 98.8262 53.9629 98.2441C53.416 97.6582 53.1426 96.8535 53.1426 95.8301C53.1426 94.7988 53.3984 93.9785 53.9102 93.3691C54.4219 92.7559 55.1133 92.4492 55.9844 92.4492C56.793 92.4492 57.4375 92.7109 57.918 93.2344C58.3984 93.7539 58.6387 94.459 58.6387 95.3496V95.9883H54.2324C54.252 96.7188 54.4375 97.2734 54.7891 97.6523C55.1406 98.0312 55.6387 98.2207 56.2832 98.2207C56.627 98.2207 56.9531 98.1914 57.2617 98.1328C57.5703 98.0703 57.9316 97.9512 58.3457 97.7754V98.7012C57.9902 98.8535 57.6562 98.9609 57.3438 99.0234C57.0312 99.0859 56.6621 99.1172 56.2363 99.1172ZM55.9727 93.3105C55.4688 93.3105 55.0703 93.4727 54.7773 93.7969C54.4844 94.1211 54.3105 94.5723 54.2559 95.1504H57.5312C57.5234 94.5488 57.3848 94.0918 57.1152 93.7793C56.8457 93.4668 56.4648 93.3105 55.9727 93.3105ZM64.4629 97.2246C64.4629 97.8262 64.2383 98.293 63.7891 98.625C63.3398 98.9531 62.709 99.1172 61.8965 99.1172C61.0488 99.1172 60.375 98.9824 59.875 98.7129V97.752C60.582 98.0957 61.2637 98.2676 61.9199 98.2676C62.4512 98.2676 62.8379 98.1816 63.0801 98.0098C63.3223 97.8379 63.4434 97.6074 63.4434 97.3184C63.4434 97.0645 63.3262 96.8496 63.0918 96.6738C62.8613 96.498 62.4492 96.2969 61.8555 96.0703C61.25 95.8359 60.8242 95.6367 60.5781 95.4727C60.332 95.3047 60.1504 95.1172 60.0332 94.9102C59.9199 94.7031 59.8633 94.4512 59.8633 94.1543C59.8633 93.627 60.0781 93.2109 60.5078 92.9062C60.9375 92.6016 61.5273 92.4492 62.2773 92.4492C63.0078 92.4492 63.6914 92.5938 64.3281 92.8828L63.9707 93.7207C63.3184 93.4473 62.7305 93.3105 62.207 93.3105C61.7695 93.3105 61.4375 93.3809 61.2109 93.5215C60.9844 93.6582 60.8711 93.8477 60.8711 94.0898C60.8711 94.3242 60.9688 94.5195 61.1641 94.6758C61.3594 94.8281 61.8145 95.041 62.5293 95.3145C63.0645 95.5137 63.459 95.6992 63.7129 95.8711C63.9707 96.043 64.1602 96.2363 64.2812 96.4512C64.4023 96.666 64.4629 96.9238 64.4629 97.2246ZM70.2168 97.2246C70.2168 97.8262 69.9922 98.293 69.543 98.625C69.0938 98.9531 68.4629 99.1172 67.6504 99.1172C66.8027 99.1172 66.1289 98.9824 65.6289 98.7129V97.752C66.3359 98.0957 67.0176 98.2676 67.6738 98.2676C68.2051 98.2676 68.5918 98.1816 68.834 98.0098C69.0762 97.8379 69.1973 97.6074 69.1973 97.3184C69.1973 97.0645 69.0801 96.8496 68.8457 96.6738C68.6152 96.498 68.2031 96.2969 67.6094 96.0703C67.0039 95.8359 66.5781 95.6367 66.332 95.4727C66.0859 95.3047 65.9043 95.1172 65.7871 94.9102C65.6738 94.7031 65.6172 94.4512 65.6172 94.1543C65.6172 93.627 65.832 93.2109 66.2617 92.9062C66.6914 92.6016 67.2812 92.4492 68.0312 92.4492C68.7617 92.4492 69.4453 92.5938 70.082 92.8828L69.7246 93.7207C69.0723 93.4473 68.4844 93.3105 67.9609 93.3105C67.5234 93.3105 67.1914 93.3809 66.9648 93.5215C66.7383 93.6582 66.625 93.8477 66.625 94.0898C66.625 94.3242 66.7227 94.5195 66.918 94.6758C67.1133 94.8281 67.5684 95.041 68.2832 95.3145C68.8184 95.5137 69.2129 95.6992 69.4668 95.8711C69.7246 96.043 69.9141 96.2363 70.0352 96.4512C70.1562 96.666 70.2168 96.9238 70.2168 97.2246ZM78.8711 99L78.666 98.0859H78.6191C78.2988 98.4883 77.9785 98.7617 77.6582 98.9062C77.3418 99.0469 76.9414 99.1172 76.457 99.1172C75.8242 99.1172 75.3281 98.9512 74.9688 98.6191C74.6094 98.2871 74.4297 97.8184 74.4297 97.2129C74.4297 95.9082 75.459 95.2246 77.5176 95.1621L78.6074 95.1211V94.7402C78.6074 94.252 78.502 93.8926 78.291 93.6621C78.0801 93.4277 77.7422 93.3105 77.2773 93.3105C76.9375 93.3105 76.6152 93.3613 76.3105 93.4629C76.0098 93.5645 75.7266 93.6777 75.4609 93.8027L75.1387 93.0117C75.4629 92.8398 75.8164 92.7051 76.1992 92.6074C76.582 92.5098 76.9609 92.4609 77.3359 92.4609C78.1133 92.4609 78.6914 92.6328 79.0703 92.9766C79.4492 93.3203 79.6387 93.8672 79.6387 94.6172V99H78.8711ZM76.6973 98.2676C77.2871 98.2676 77.75 98.1094 78.0859 97.793C78.4258 97.4727 78.5957 97.0195 78.5957 96.4336V95.8535L77.6465 95.8945C76.9082 95.9219 76.3691 96.0391 76.0293 96.2461C75.6934 96.4531 75.5254 96.7793 75.5254 97.2246C75.5254 97.5605 75.627 97.8184 75.8301 97.998C76.0371 98.1777 76.3262 98.2676 76.6973 98.2676ZM84.2148 99.1172C83.2891 99.1172 82.5684 98.834 82.0527 98.2676C81.5371 97.6973 81.2793 96.8809 81.2793 95.8184C81.2793 94.7402 81.5391 93.9102 82.0586 93.3281C82.582 92.7422 83.3262 92.4492 84.291 92.4492C84.6035 92.4492 84.9121 92.4824 85.2168 92.5488C85.5254 92.6113 85.7793 92.6934 85.9785 92.7949L85.6562 93.6738C85.1133 93.4707 84.6504 93.3691 84.2676 93.3691C83.6191 93.3691 83.1406 93.5742 82.832 93.9844C82.5234 94.3906 82.3691 94.998 82.3691 95.8066C82.3691 96.584 82.5234 97.1797 82.832 97.5938C83.1406 98.0039 83.5977 98.209 84.2031 98.209C84.7695 98.209 85.3262 98.084 85.873 97.834V98.7715C85.4277 99.002 84.875 99.1172 84.2148 99.1172ZM89.9805 99.1172C89.0547 99.1172 88.334 98.834 87.8184 98.2676C87.3027 97.6973 87.0449 96.8809 87.0449 95.8184C87.0449 94.7402 87.3047 93.9102 87.8242 93.3281C88.3477 92.7422 89.0918 92.4492 90.0566 92.4492C90.3691 92.4492 90.6777 92.4824 90.9824 92.5488C91.291 92.6113 91.5449 92.6934 91.7441 92.7949L91.4219 93.6738C90.8789 93.4707 90.416 93.3691 90.0332 93.3691C89.3848 93.3691 88.9062 93.5742 88.5977 93.9844C88.2891 94.3906 88.1348 94.998 88.1348 95.8066C88.1348 96.584 88.2891 97.1797 88.5977 97.5938C88.9062 98.0039 89.3633 98.209 89.9688 98.209C90.5352 98.209 91.0918 98.084 91.6387 97.834V98.7715C91.1934 99.002 90.6406 99.1172 89.9805 99.1172ZM98.7578 95.7715C98.7578 96.8223 98.4922 97.6426 97.9609 98.2324C97.4297 98.8223 96.6953 99.1172 95.7578 99.1172C95.1758 99.1172 94.6602 98.9824 94.2109 98.7129C93.7617 98.4395 93.416 98.0488 93.1738 97.541C92.9316 97.0332 92.8105 96.4434 92.8105 95.7715C92.8105 94.7246 93.0723 93.9102 93.5957 93.3281C94.1191 92.7422 94.8535 92.4492 95.7988 92.4492C96.7051 92.4492 97.4238 92.748 97.9551 93.3457C98.4902 93.9395 98.7578 94.748 98.7578 95.7715ZM93.9004 95.7715C93.9004 96.5801 94.0586 97.1953 94.375 97.6172C94.6953 98.0352 95.166 98.2441 95.7871 98.2441C96.4004 98.2441 96.8672 98.0352 97.1875 97.6172C97.5078 97.1953 97.668 96.5801 97.668 95.7715C97.668 94.9629 97.5059 94.3555 97.1816 93.9492C96.8613 93.5391 96.3906 93.334 95.7695 93.334C94.5234 93.334 93.9004 94.1465 93.9004 95.7715ZM101.43 92.5664V96.709C101.43 97.2285 101.545 97.6152 101.775 97.8691C102.01 98.1191 102.371 98.2441 102.859 98.2441C103.52 98.2441 104 98.0605 104.301 97.6934C104.602 97.3262 104.752 96.7344 104.752 95.918V92.5664H105.812V99H104.945L104.793 98.1504H104.74C104.549 98.459 104.277 98.6973 103.926 98.8652C103.574 99.0332 103.166 99.1172 102.701 99.1172C101.928 99.1172 101.344 98.9316 100.949 98.5605C100.559 98.1895 100.363 97.5957 100.363 96.7793V92.5664H101.43ZM112.234 99V94.8867C112.234 94.3633 112.117 93.9746 111.883 93.7207C111.652 93.4629 111.289 93.334 110.793 93.334C110.133 93.334 109.652 93.5176 109.352 93.8848C109.055 94.248 108.906 94.8418 108.906 95.666V99H107.852V92.5664H108.701L108.859 93.4453H108.918C109.117 93.1289 109.396 92.8848 109.756 92.7129C110.115 92.5371 110.512 92.4492 110.945 92.4492C111.734 92.4492 112.32 92.6406 112.703 93.0234C113.086 93.4062 113.277 94.002 113.277 94.8105V99H112.234ZM117.42 98.2559C117.557 98.2559 117.717 98.2422 117.9 98.2148C118.084 98.1875 118.223 98.1562 118.316 98.1211V98.9297C118.219 98.9727 118.066 99.0137 117.859 99.0527C117.656 99.0957 117.449 99.1172 117.238 99.1172C115.98 99.1172 115.352 98.4551 115.352 97.1309V93.3867H114.443V92.8828L115.363 92.4609L115.785 91.0898H116.412V92.5664H118.27V93.3867H116.412V97.1016C116.412 97.4727 116.5 97.7578 116.676 97.957C116.855 98.1562 117.104 98.2559 117.42 98.2559Z" fill="#F4F4F4"/>
<circle cx="70" cy="40" r="20" fill="#008CB9" fill-opacity="0.1"/>
<path d="M64.591 45.4316C64.3941 45.4316 64.2312 45.3672 64.1024 45.2385C63.9736 45.1097 63.9092 44.9468 63.9092 44.7498V38.3862C63.9092 38.2044 63.9774 38.0491 64.1138 37.9203C64.2501 37.7915 64.4092 37.7271 64.591 37.7271C64.788 37.7271 64.9509 37.7915 65.0797 37.9203C65.2085 38.0491 65.2728 38.2119 65.2728 38.4089V44.7725C65.2728 44.9544 65.2047 45.1097 65.0683 45.2385C64.9319 45.3672 64.7728 45.4316 64.591 45.4316ZM70.091 45.4316C69.8941 45.4316 69.7312 45.3672 69.6024 45.2385C69.4736 45.1097 69.4092 44.9468 69.4092 44.7498V38.3862C69.4092 38.2044 69.4774 38.0491 69.6138 37.9203C69.7501 37.7915 69.9092 37.7271 70.091 37.7271C70.288 37.7271 70.4509 37.7915 70.5797 37.9203C70.7085 38.0491 70.7728 38.2119 70.7728 38.4089V44.7725C70.7728 44.9544 70.7047 45.1097 70.5683 45.2385C70.4319 45.3672 70.2728 45.4316 70.091 45.4316ZM61.5683 48.1589C61.3865 48.1589 61.2312 48.0907 61.1024 47.9544C60.9736 47.818 60.9092 47.6589 60.9092 47.4771C60.9092 47.2801 60.9736 47.1172 61.1024 46.9885C61.2312 46.8597 61.3941 46.7953 61.591 46.7953H78.4319C78.6138 46.7953 78.7691 46.8635 78.8978 46.9998C79.0266 47.1362 79.091 47.2953 79.091 47.4771C79.091 47.6741 79.0266 47.8369 78.8978 47.9657C78.7691 48.0945 78.6062 48.1589 78.4092 48.1589H61.5683ZM75.4092 45.4316C75.2122 45.4316 75.0494 45.3672 74.9206 45.2385C74.7918 45.1097 74.7274 44.9468 74.7274 44.7498V38.3862C74.7274 38.2044 74.7956 38.0491 74.9319 37.9203C75.0683 37.7915 75.2274 37.7271 75.4092 37.7271C75.6062 37.7271 75.7691 37.7915 75.8978 37.9203C76.0266 38.0491 76.091 38.2119 76.091 38.4089V44.7725C76.091 44.9544 76.0228 45.1097 75.8865 45.2385C75.7501 45.3672 75.591 45.4316 75.4092 45.4316ZM70.6819 30.3635L78.591 34.8635C78.7425 34.9392 78.8638 35.0491 78.9547 35.193C79.0456 35.3369 79.091 35.4922 79.091 35.6589C79.091 35.871 79.0077 36.0415 78.841 36.1703C78.6744 36.2991 78.485 36.3635 78.2728 36.3635H61.7274C61.5153 36.3635 61.3259 36.2991 61.1592 36.1703C60.9925 36.0415 60.9092 35.871 60.9092 35.6589C60.9092 35.4922 60.9585 35.3407 61.0569 35.2044C61.1554 35.068 61.2804 34.9544 61.4319 34.8635L69.3183 30.3635C69.5304 30.2422 69.7577 30.1816 70.0001 30.1816C70.2425 30.1816 70.4698 30.2422 70.6819 30.3635ZM63.9547 34.9998H76.0456H63.9547ZM63.9547 34.9998H76.0456L70.0001 31.5453L63.9547 34.9998Z" fill="url(#paint1_linear_297_471)"/>
<defs>
<linearGradient id="paint0_linear_297_471" x1="-620.151" y1="562.625" x2="-224.909" y2="-187.641" gradientUnits="userSpaceOnUse">
<stop stop-color="#00B3D7"/>
<stop offset="1" stop-color="#00B3D7" stop-opacity="0.1"/>
</linearGradient>
<linearGradient id="paint1_linear_297_471" x1="70.0001" y1="30.1816" x2="70.0001" y2="48.1589" gradientUnits="userSpaceOnUse">
<stop stop-color="#0082AB"/>
<stop offset="1" stop-color="#006B8D" stop-opacity="0.3"/>
</linearGradient>
</defs>
</svg>
