<svg width="40" height="40" viewBox="0 0 40 40" fill="none" xmlns="http://www.w3.org/2000/svg">
<circle cx="20" cy="20" r="20" fill="#008CB9" fill-opacity="0.1"/>
<path d="M14.591 25.4316C14.3941 25.4316 14.2312 25.3672 14.1024 25.2385C13.9736 25.1097 13.9092 24.9468 13.9092 24.7498V18.3862C13.9092 18.2044 13.9774 18.0491 14.1138 17.9203C14.2501 17.7915 14.4092 17.7271 14.591 17.7271C14.788 17.7271 14.9509 17.7915 15.0797 17.9203C15.2085 18.0491 15.2728 18.2119 15.2728 18.4089V24.7725C15.2728 24.9544 15.2047 25.1097 15.0683 25.2385C14.9319 25.3672 14.7728 25.4316 14.591 25.4316ZM20.091 25.4316C19.8941 25.4316 19.7312 25.3672 19.6024 25.2385C19.4736 25.1097 19.4092 24.9468 19.4092 24.7498V18.3862C19.4092 18.2044 19.4774 18.0491 19.6138 17.9203C19.7501 17.7915 19.9092 17.7271 20.091 17.7271C20.288 17.7271 20.4509 17.7915 20.5797 17.9203C20.7085 18.0491 20.7728 18.2119 20.7728 18.4089V24.7725C20.7728 24.9544 20.7047 25.1097 20.5683 25.2385C20.4319 25.3672 20.2728 25.4316 20.091 25.4316ZM11.5683 28.1589C11.3865 28.1589 11.2312 28.0907 11.1024 27.9544C10.9736 27.818 10.9092 27.6589 10.9092 27.4771C10.9092 27.2801 10.9736 27.1172 11.1024 26.9885C11.2312 26.8597 11.3941 26.7953 11.591 26.7953H28.4319C28.6138 26.7953 28.7691 26.8635 28.8978 26.9998C29.0266 27.1362 29.091 27.2953 29.091 27.4771C29.091 27.6741 29.0266 27.8369 28.8978 27.9657C28.7691 28.0945 28.6062 28.1589 28.4092 28.1589H11.5683ZM25.4092 25.4316C25.2122 25.4316 25.0494 25.3672 24.9206 25.2385C24.7918 25.1097 24.7274 24.9468 24.7274 24.7498V18.3862C24.7274 18.2044 24.7956 18.0491 24.9319 17.9203C25.0683 17.7915 25.2274 17.7271 25.4092 17.7271C25.6062 17.7271 25.7691 17.7915 25.8978 17.9203C26.0266 18.0491 26.091 18.2119 26.091 18.4089V24.7725C26.091 24.9544 26.0228 25.1097 25.8865 25.2385C25.7501 25.3672 25.591 25.4316 25.4092 25.4316ZM20.6819 10.3635L28.591 14.8635C28.7425 14.9392 28.8638 15.0491 28.9547 15.193C29.0456 15.3369 29.091 15.4922 29.091 15.6589C29.091 15.871 29.0077 16.0415 28.841 16.1703C28.6744 16.2991 28.485 16.3635 28.2728 16.3635H11.7274C11.5153 16.3635 11.3259 16.2991 11.1592 16.1703C10.9925 16.0415 10.9092 15.871 10.9092 15.6589C10.9092 15.4922 10.9585 15.3407 11.0569 15.2044C11.1554 15.068 11.2804 14.9544 11.4319 14.8635L19.3183 10.3635C19.5304 10.2422 19.7577 10.1816 20.0001 10.1816C20.2425 10.1816 20.4698 10.2422 20.6819 10.3635ZM13.9547 14.9998H26.0456H13.9547ZM13.9547 14.9998H26.0456L20.0001 11.5453L13.9547 14.9998Z" fill="url(#paint0_linear_297_477)"/>
<defs>
<linearGradient id="paint0_linear_297_477" x1="20.0001" y1="10.1816" x2="20.0001" y2="28.1589" gradientUnits="userSpaceOnUse">
<stop stop-color="#0082AB"/>
<stop offset="1" stop-color="#006B8D" stop-opacity="0.3"/>
</linearGradient>
</defs>
</svg>
