<svg width="140" height="112" viewBox="0 0 140 112" fill="none" xmlns="http://www.w3.org/2000/svg">
<rect width="140" height="112" rx="7.16981" transform="matrix(-1 0 0 1 140 0)" fill="url(#paint0_linear_297_451)"/>
<path d="M13.2461 74.4336H14.377L16.3047 79.9297C16.5508 80.625 16.7305 81.248 16.8438 81.7988C16.9414 81.3066 17.123 80.6758 17.3887 79.9062L19.3047 74.4336H20.4473L17.3887 83H16.3047L13.2461 74.4336ZM24.0918 83.1172C23.127 83.1172 22.3691 82.8262 21.8184 82.2441C21.2715 81.6582 20.998 80.8535 20.998 79.8301C20.998 78.7988 21.2539 77.9785 21.7656 77.3691C22.2773 76.7559 22.9688 76.4492 23.8398 76.4492C24.6484 76.4492 25.293 76.7109 25.7734 77.2344C26.2539 77.7539 26.4941 78.459 26.4941 79.3496V79.9883H22.0879C22.1074 80.7188 22.293 81.2734 22.6445 81.6523C22.9961 82.0312 23.4941 82.2207 24.1387 82.2207C24.4824 82.2207 24.8086 82.1914 25.1172 82.1328C25.4258 82.0703 25.7871 81.9512 26.2012 81.7754V82.7012C25.8457 82.8535 25.5117 82.9609 25.1992 83.0234C24.8867 83.0859 24.5176 83.1172 24.0918 83.1172ZM23.8281 77.3105C23.3242 77.3105 22.9258 77.4727 22.6328 77.7969C22.3398 78.1211 22.166 78.5723 22.1113 79.1504H25.3867C25.3789 78.5488 25.2402 78.0918 24.9707 77.7793C24.7012 77.4668 24.3203 77.3105 23.8281 77.3105ZM31.1289 76.4492C31.4141 76.4492 31.666 76.4727 31.8848 76.5195L31.7559 77.4922C31.5176 77.4375 31.2852 77.4102 31.0586 77.4102C30.7188 77.4102 30.4023 77.5039 30.1094 77.6914C29.8203 77.8789 29.5938 78.1387 29.4297 78.4707C29.2656 78.7988 29.1836 79.1641 29.1836 79.5664V83H28.1289V76.5664H28.9961L29.1133 77.7441H29.1602C29.4062 77.3184 29.6973 76.9961 30.0332 76.7773C30.3691 76.5586 30.7344 76.4492 31.1289 76.4492ZM34.1406 83H33.0859V76.5664H34.1406V83ZM33.0039 74.8262C33.0039 74.5918 33.0625 74.4219 33.1797 74.3164C33.3008 74.2109 33.4492 74.1582 33.625 74.1582C33.7891 74.1582 33.9316 74.2109 34.0527 74.3164C34.1777 74.4219 34.2402 74.5918 34.2402 74.8262C34.2402 75.0566 34.1777 75.2266 34.0527 75.3359C33.9316 75.4453 33.7891 75.5 33.625 75.5C33.4492 75.5 33.3008 75.4453 33.1797 75.3359C33.0625 75.2266 33.0039 75.0566 33.0039 74.8262ZM39.1445 77.3867H37.5215V83H36.4668V77.3867H35.3418V76.8945L36.4668 76.5312V76.1621C36.4668 75.3809 36.6367 74.7949 36.9766 74.4043C37.3203 74.0137 37.8477 73.8184 38.5586 73.8184C38.9688 73.8184 39.3848 73.8906 39.8066 74.0352L39.5254 74.8613C39.1621 74.7441 38.8438 74.6855 38.5703 74.6855C38.2148 74.6855 37.9512 74.8027 37.7793 75.0371C37.6074 75.2715 37.5215 75.6426 37.5215 76.1504V76.5664H39.1445V77.3867ZM39.3086 76.5664H40.4395L41.8281 80.2285C42.1211 81.0254 42.3008 81.6094 42.3672 81.9805H42.4141C42.4492 81.8359 42.5293 81.5664 42.6543 81.1719C42.7793 80.7734 42.8848 80.4551 42.9707 80.2168L44.2773 76.5664H45.4141L42.6426 83.8906C42.373 84.6016 42.0527 85.1113 41.6816 85.4199C41.3105 85.7285 40.8516 85.8828 40.3047 85.8828C40.0117 85.8828 39.7207 85.8496 39.4316 85.7832V84.9453C39.627 84.9922 39.8613 85.0156 40.1348 85.0156C40.4707 85.0156 40.7559 84.9219 40.9902 84.7344C41.2246 84.5508 41.416 84.2656 41.5645 83.8789L41.8984 83.0234L39.3086 76.5664ZM48.543 76.5664H49.6738L51.0625 80.2285C51.3555 81.0254 51.5352 81.6094 51.6016 81.9805H51.6484C51.6836 81.8359 51.7637 81.5664 51.8887 81.1719C52.0137 80.7734 52.1191 80.4551 52.2051 80.2168L53.5117 76.5664H54.6484L51.877 83.8906C51.6074 84.6016 51.2871 85.1113 50.916 85.4199C50.5449 85.7285 50.0859 85.8828 49.5391 85.8828C49.2461 85.8828 48.9551 85.8496 48.666 85.7832V84.9453C48.8613 84.9922 49.0957 85.0156 49.3691 85.0156C49.7051 85.0156 49.9902 84.9219 50.2246 84.7344C50.459 84.5508 50.6504 84.2656 50.7988 83.8789L51.1328 83.0234L48.543 76.5664ZM61.2578 79.7715C61.2578 80.8223 60.9922 81.6426 60.4609 82.2324C59.9297 82.8223 59.1953 83.1172 58.2578 83.1172C57.6758 83.1172 57.1602 82.9824 56.7109 82.7129C56.2617 82.4395 55.916 82.0488 55.6738 81.541C55.4316 81.0332 55.3105 80.4434 55.3105 79.7715C55.3105 78.7246 55.5723 77.9102 56.0957 77.3281C56.6191 76.7422 57.3535 76.4492 58.2988 76.4492C59.2051 76.4492 59.9238 76.748 60.4551 77.3457C60.9902 77.9395 61.2578 78.748 61.2578 79.7715ZM56.4004 79.7715C56.4004 80.5801 56.5586 81.1953 56.875 81.6172C57.1953 82.0352 57.666 82.2441 58.2871 82.2441C58.9004 82.2441 59.3672 82.0352 59.6875 81.6172C60.0078 81.1953 60.168 80.5801 60.168 79.7715C60.168 78.9629 60.0059 78.3555 59.6816 77.9492C59.3613 77.5391 58.8906 77.334 58.2695 77.334C57.0234 77.334 56.4004 78.1465 56.4004 79.7715ZM63.9297 76.5664V80.709C63.9297 81.2285 64.0449 81.6152 64.2754 81.8691C64.5098 82.1191 64.8711 82.2441 65.3594 82.2441C66.0195 82.2441 66.5 82.0605 66.8008 81.6934C67.1016 81.3262 67.252 80.7344 67.252 79.918V76.5664H68.3125V83H67.4453L67.293 82.1504H67.2402C67.0488 82.459 66.7773 82.6973 66.4258 82.8652C66.0742 83.0332 65.666 83.1172 65.2012 83.1172C64.4277 83.1172 63.8438 82.9316 63.4492 82.5605C63.0586 82.1895 62.8633 81.5957 62.8633 80.7793V76.5664H63.9297ZM73.3516 76.4492C73.6367 76.4492 73.8887 76.4727 74.1074 76.5195L73.9785 77.4922C73.7402 77.4375 73.5078 77.4102 73.2812 77.4102C72.9414 77.4102 72.625 77.5039 72.332 77.6914C72.043 77.8789 71.8164 78.1387 71.6523 78.4707C71.4883 78.7988 71.4062 79.1641 71.4062 79.5664V83H70.3516V76.5664H71.2188L71.3359 77.7441H71.3828C71.6289 77.3184 71.9199 76.9961 72.2559 76.7773C72.5918 76.5586 72.957 76.4492 73.3516 76.4492ZM81.4727 76.4609C82.3203 76.4609 82.9746 76.7539 83.4355 77.3398C83.8965 77.9219 84.127 78.7363 84.127 79.7832C84.127 80.8457 83.8926 81.668 83.4238 82.25C82.9551 82.8281 82.3047 83.1172 81.4727 83.1172C81.0391 83.1172 80.6523 83.0391 80.3125 82.8828C79.9727 82.7266 79.6953 82.4941 79.4805 82.1855H79.3984C79.2773 82.6543 79.2051 82.9258 79.1816 83H78.4258V73.8828H79.4805V76.0977C79.4805 76.5391 79.4609 76.9805 79.4219 77.4219H79.4805C79.9141 76.7812 80.5781 76.4609 81.4727 76.4609ZM81.2969 77.334C80.6484 77.334 80.1836 77.5176 79.9023 77.8848C79.6211 78.252 79.4805 78.873 79.4805 79.748V79.7949C79.4805 80.6738 79.623 81.3027 79.9082 81.6816C80.1973 82.0566 80.668 82.2441 81.3203 82.2441C81.8984 82.2441 82.3281 82.0332 82.6094 81.6113C82.8945 81.1855 83.0371 80.5723 83.0371 79.7715C83.0371 78.959 82.8945 78.3496 82.6094 77.9434C82.3242 77.5371 81.8867 77.334 81.2969 77.334ZM86.8047 76.5664V80.709C86.8047 81.2285 86.9199 81.6152 87.1504 81.8691C87.3848 82.1191 87.7461 82.2441 88.2344 82.2441C88.8945 82.2441 89.375 82.0605 89.6758 81.6934C89.9766 81.3262 90.127 80.7344 90.127 79.918V76.5664H91.1875V83H90.3203L90.168 82.1504H90.1152C89.9238 82.459 89.6523 82.6973 89.3008 82.8652C88.9492 83.0332 88.541 83.1172 88.0762 83.1172C87.3027 83.1172 86.7188 82.9316 86.3242 82.5605C85.9336 82.1895 85.7383 81.5957 85.7383 80.7793V76.5664H86.8047ZM97.416 81.2246C97.416 81.8262 97.1914 82.293 96.7422 82.625C96.293 82.9531 95.6621 83.1172 94.8496 83.1172C94.002 83.1172 93.3281 82.9824 92.8281 82.7129V81.752C93.5352 82.0957 94.2168 82.2676 94.873 82.2676C95.4043 82.2676 95.791 82.1816 96.0332 82.0098C96.2754 81.8379 96.3965 81.6074 96.3965 81.3184C96.3965 81.0645 96.2793 80.8496 96.0449 80.6738C95.8145 80.498 95.4023 80.2969 94.8086 80.0703C94.2031 79.8359 93.7773 79.6367 93.5312 79.4727C93.2852 79.3047 93.1035 79.1172 92.9863 78.9102C92.873 78.7031 92.8164 78.4512 92.8164 78.1543C92.8164 77.627 93.0312 77.2109 93.4609 76.9062C93.8906 76.6016 94.4805 76.4492 95.2305 76.4492C95.9609 76.4492 96.6445 76.5938 97.2812 76.8828L96.9238 77.7207C96.2715 77.4473 95.6836 77.3105 95.1602 77.3105C94.7227 77.3105 94.3906 77.3809 94.1641 77.5215C93.9375 77.6582 93.8242 77.8477 93.8242 78.0898C93.8242 78.3242 93.9219 78.5195 94.1172 78.6758C94.3125 78.8281 94.7676 79.041 95.4824 79.3145C96.0176 79.5137 96.4121 79.6992 96.666 79.8711C96.9238 80.043 97.1133 80.2363 97.2344 80.4512C97.3555 80.666 97.416 80.9238 97.416 81.2246ZM100.035 83H98.9805V76.5664H100.035V83ZM98.8984 74.8262C98.8984 74.5918 98.957 74.4219 99.0742 74.3164C99.1953 74.2109 99.3438 74.1582 99.5195 74.1582C99.6836 74.1582 99.8262 74.2109 99.9473 74.3164C100.072 74.4219 100.135 74.5918 100.135 74.8262C100.135 75.0566 100.072 75.2266 99.9473 75.3359C99.8262 75.4453 99.6836 75.5 99.5195 75.5C99.3438 75.5 99.1953 75.4453 99.0742 75.3359C98.957 75.2266 98.8984 75.0566 98.8984 74.8262ZM106.457 83V78.8867C106.457 78.3633 106.34 77.9746 106.105 77.7207C105.875 77.4629 105.512 77.334 105.016 77.334C104.355 77.334 103.875 77.5176 103.574 77.8848C103.277 78.248 103.129 78.8418 103.129 79.666V83H102.074V76.5664H102.924L103.082 77.4453H103.141C103.34 77.1289 103.619 76.8848 103.979 76.7129C104.338 76.5371 104.734 76.4492 105.168 76.4492C105.957 76.4492 106.543 76.6406 106.926 77.0234C107.309 77.4062 107.5 78.002 107.5 78.8105V83H106.457ZM112.229 83.1172C111.264 83.1172 110.506 82.8262 109.955 82.2441C109.408 81.6582 109.135 80.8535 109.135 79.8301C109.135 78.7988 109.391 77.9785 109.902 77.3691C110.414 76.7559 111.105 76.4492 111.977 76.4492C112.785 76.4492 113.43 76.7109 113.91 77.2344C114.391 77.7539 114.631 78.459 114.631 79.3496V79.9883H110.225C110.244 80.7188 110.43 81.2734 110.781 81.6523C111.133 82.0312 111.631 82.2207 112.275 82.2207C112.619 82.2207 112.945 82.1914 113.254 82.1328C113.562 82.0703 113.924 81.9512 114.338 81.7754V82.7012C113.982 82.8535 113.648 82.9609 113.336 83.0234C113.023 83.0859 112.654 83.1172 112.229 83.1172ZM111.965 77.3105C111.461 77.3105 111.062 77.4727 110.77 77.7969C110.477 78.1211 110.303 78.5723 110.248 79.1504H113.523C113.516 78.5488 113.377 78.0918 113.107 77.7793C112.838 77.4668 112.457 77.3105 111.965 77.3105ZM120.455 81.2246C120.455 81.8262 120.23 82.293 119.781 82.625C119.332 82.9531 118.701 83.1172 117.889 83.1172C117.041 83.1172 116.367 82.9824 115.867 82.7129V81.752C116.574 82.0957 117.256 82.2676 117.912 82.2676C118.443 82.2676 118.83 82.1816 119.072 82.0098C119.314 81.8379 119.436 81.6074 119.436 81.3184C119.436 81.0645 119.318 80.8496 119.084 80.6738C118.854 80.498 118.441 80.2969 117.848 80.0703C117.242 79.8359 116.816 79.6367 116.57 79.4727C116.324 79.3047 116.143 79.1172 116.025 78.9102C115.912 78.7031 115.855 78.4512 115.855 78.1543C115.855 77.627 116.07 77.2109 116.5 76.9062C116.93 76.6016 117.52 76.4492 118.27 76.4492C119 76.4492 119.684 76.5938 120.32 76.8828L119.963 77.7207C119.311 77.4473 118.723 77.3105 118.199 77.3105C117.762 77.3105 117.43 77.3809 117.203 77.5215C116.977 77.6582 116.863 77.8477 116.863 78.0898C116.863 78.3242 116.961 78.5195 117.156 78.6758C117.352 78.8281 117.807 79.041 118.521 79.3145C119.057 79.5137 119.451 79.6992 119.705 79.8711C119.963 80.043 120.152 80.2363 120.273 80.4512C120.395 80.666 120.455 80.9238 120.455 81.2246ZM126.209 81.2246C126.209 81.8262 125.984 82.293 125.535 82.625C125.086 82.9531 124.455 83.1172 123.643 83.1172C122.795 83.1172 122.121 82.9824 121.621 82.7129V81.752C122.328 82.0957 123.01 82.2676 123.666 82.2676C124.197 82.2676 124.584 82.1816 124.826 82.0098C125.068 81.8379 125.189 81.6074 125.189 81.3184C125.189 81.0645 125.072 80.8496 124.838 80.6738C124.607 80.498 124.195 80.2969 123.602 80.0703C122.996 79.8359 122.57 79.6367 122.324 79.4727C122.078 79.3047 121.896 79.1172 121.779 78.9102C121.666 78.7031 121.609 78.4512 121.609 78.1543C121.609 77.627 121.824 77.2109 122.254 76.9062C122.684 76.6016 123.273 76.4492 124.023 76.4492C124.754 76.4492 125.438 76.5938 126.074 76.8828L125.717 77.7207C125.064 77.4473 124.477 77.3105 123.953 77.3105C123.516 77.3105 123.184 77.3809 122.957 77.5215C122.73 77.6582 122.617 77.8477 122.617 78.0898C122.617 78.3242 122.715 78.5195 122.91 78.6758C123.105 78.8281 123.561 79.041 124.275 79.3145C124.811 79.5137 125.205 79.6992 125.459 79.8711C125.717 80.043 125.906 80.2363 126.027 80.4512C126.148 80.666 126.209 80.9238 126.209 81.2246ZM41.6289 99.1172C40.793 99.1172 40.1445 98.8281 39.6836 98.25C39.2227 97.6719 38.9922 96.8535 38.9922 95.7949C38.9922 94.7441 39.2227 93.9238 39.6836 93.334C40.1484 92.7441 40.8008 92.4492 41.6406 92.4492C42.5039 92.4492 43.168 92.7656 43.6328 93.3984H43.709C43.6973 93.3203 43.6816 93.1641 43.6621 92.9297C43.6426 92.6914 43.6328 92.5312 43.6328 92.4492V89.8828H44.6875V99H43.8379L43.6797 98.1387H43.6328C43.1836 98.791 42.5156 99.1172 41.6289 99.1172ZM41.7988 98.2441C42.4395 98.2441 42.9062 98.0703 43.1992 97.7227C43.4961 97.3711 43.6445 96.7969 43.6445 96V95.8066C43.6445 94.9121 43.4941 94.2754 43.1934 93.8965C42.8965 93.5137 42.4277 93.3223 41.7871 93.3223C41.2441 93.3223 40.8242 93.5391 40.5273 93.9727C40.2305 94.4023 40.082 95.0176 40.082 95.8184C40.082 96.6152 40.2285 97.2188 40.5215 97.6289C40.8184 98.0391 41.2441 98.2441 41.7988 98.2441ZM52.3223 95.7715C52.3223 96.8223 52.0566 97.6426 51.5254 98.2324C50.9941 98.8223 50.2598 99.1172 49.3223 99.1172C48.7402 99.1172 48.2246 98.9824 47.7754 98.7129C47.3262 98.4395 46.9805 98.0488 46.7383 97.541C46.4961 97.0332 46.375 96.4434 46.375 95.7715C46.375 94.7246 46.6367 93.9102 47.1602 93.3281C47.6836 92.7422 48.418 92.4492 49.3633 92.4492C50.2695 92.4492 50.9883 92.748 51.5195 93.3457C52.0547 93.9395 52.3223 94.748 52.3223 95.7715ZM47.4648 95.7715C47.4648 96.5801 47.623 97.1953 47.9395 97.6172C48.2598 98.0352 48.7305 98.2441 49.3516 98.2441C49.9648 98.2441 50.4316 98.0352 50.752 97.6172C51.0723 97.1953 51.2324 96.5801 51.2324 95.7715C51.2324 94.9629 51.0703 94.3555 50.7461 93.9492C50.4258 93.5391 49.9551 93.334 49.334 93.334C48.0879 93.334 47.4648 94.1465 47.4648 95.7715ZM56.5762 99.1172C55.6504 99.1172 54.9297 98.834 54.4141 98.2676C53.8984 97.6973 53.6406 96.8809 53.6406 95.8184C53.6406 94.7402 53.9004 93.9102 54.4199 93.3281C54.9434 92.7422 55.6875 92.4492 56.6523 92.4492C56.9648 92.4492 57.2734 92.4824 57.5781 92.5488C57.8867 92.6113 58.1406 92.6934 58.3398 92.7949L58.0176 93.6738C57.4746 93.4707 57.0117 93.3691 56.6289 93.3691C55.9805 93.3691 55.502 93.5742 55.1934 93.9844C54.8848 94.3906 54.7305 94.998 54.7305 95.8066C54.7305 96.584 54.8848 97.1797 55.1934 97.5938C55.502 98.0039 55.959 98.209 56.5645 98.209C57.1309 98.209 57.6875 98.084 58.2344 97.834V98.7715C57.7891 99.002 57.2363 99.1172 56.5762 99.1172ZM60.7598 92.5664V96.709C60.7598 97.2285 60.875 97.6152 61.1055 97.8691C61.3398 98.1191 61.7012 98.2441 62.1895 98.2441C62.8496 98.2441 63.3301 98.0605 63.6309 97.6934C63.9316 97.3262 64.082 96.7344 64.082 95.918V92.5664H65.1426V99H64.2754L64.123 98.1504H64.0703C63.8789 98.459 63.6074 98.6973 63.2559 98.8652C62.9043 99.0332 62.4961 99.1172 62.0312 99.1172C61.2578 99.1172 60.6738 98.9316 60.2793 98.5605C59.8887 98.1895 59.6934 97.5957 59.6934 96.7793V92.5664H60.7598ZM75.3672 99V94.8574C75.3672 93.8418 74.9316 93.334 74.0605 93.334C73.4629 93.334 73.0234 93.5078 72.7422 93.8555C72.4609 94.2031 72.3203 94.7344 72.3203 95.4492V99H71.2715V94.8574C71.2715 94.3496 71.1641 93.9688 70.9492 93.7148C70.7383 93.4609 70.4062 93.334 69.9531 93.334C69.3594 93.334 68.9238 93.5156 68.6465 93.8789C68.373 94.2422 68.2363 94.8379 68.2363 95.666V99H67.1816V92.5664H68.0312L68.1895 93.4453H68.248C68.4316 93.1328 68.6895 92.8887 69.0215 92.7129C69.3574 92.5371 69.7324 92.4492 70.1465 92.4492C71.1543 92.4492 71.8105 92.8086 72.1152 93.5273H72.1738C72.3809 93.1836 72.6621 92.918 73.0176 92.7305C73.377 92.543 73.7832 92.4492 74.2363 92.4492C74.9629 92.4492 75.5059 92.6367 75.8652 93.0117C76.2285 93.3867 76.4102 93.9863 76.4102 94.8105V99H75.3672ZM81.1445 99.1172C80.1797 99.1172 79.4219 98.8262 78.8711 98.2441C78.3242 97.6582 78.0508 96.8535 78.0508 95.8301C78.0508 94.7988 78.3066 93.9785 78.8184 93.3691C79.3301 92.7559 80.0215 92.4492 80.8926 92.4492C81.7012 92.4492 82.3457 92.7109 82.8262 93.2344C83.3066 93.7539 83.5469 94.459 83.5469 95.3496V95.9883H79.1406C79.1602 96.7188 79.3457 97.2734 79.6973 97.6523C80.0488 98.0312 80.5469 98.2207 81.1914 98.2207C81.5352 98.2207 81.8613 98.1914 82.1699 98.1328C82.4785 98.0703 82.8398 97.9512 83.2539 97.7754V98.7012C82.8984 98.8535 82.5645 98.9609 82.252 99.0234C81.9395 99.0859 81.5703 99.1172 81.1445 99.1172ZM80.8809 93.3105C80.377 93.3105 79.9785 93.4727 79.6855 93.7969C79.3926 94.1211 79.2188 94.5723 79.1641 95.1504H82.4395C82.4316 94.5488 82.293 94.0918 82.0234 93.7793C81.7539 93.4668 81.373 93.3105 80.8809 93.3105ZM89.5645 99V94.8867C89.5645 94.3633 89.4473 93.9746 89.2129 93.7207C88.9824 93.4629 88.6191 93.334 88.123 93.334C87.4629 93.334 86.9824 93.5176 86.6816 93.8848C86.3848 94.248 86.2363 94.8418 86.2363 95.666V99H85.1816V92.5664H86.0312L86.1895 93.4453H86.248C86.4473 93.1289 86.7266 92.8848 87.0859 92.7129C87.4453 92.5371 87.8418 92.4492 88.2754 92.4492C89.0645 92.4492 89.6504 92.6406 90.0332 93.0234C90.416 93.4062 90.6074 94.002 90.6074 94.8105V99H89.5645ZM94.75 98.2559C94.8867 98.2559 95.0469 98.2422 95.2305 98.2148C95.4141 98.1875 95.5527 98.1562 95.6465 98.1211V98.9297C95.5488 98.9727 95.3965 99.0137 95.1895 99.0527C94.9863 99.0957 94.7793 99.1172 94.5684 99.1172C93.3105 99.1172 92.6816 98.4551 92.6816 97.1309V93.3867H91.7734V92.8828L92.6934 92.4609L93.1152 91.0898H93.7422V92.5664H95.5996V93.3867H93.7422V97.1016C93.7422 97.4727 93.8301 97.7578 94.0059 97.957C94.1855 98.1562 94.4336 98.2559 94.75 98.2559ZM101.125 97.2246C101.125 97.8262 100.9 98.293 100.451 98.625C100.002 98.9531 99.3711 99.1172 98.5586 99.1172C97.7109 99.1172 97.0371 98.9824 96.5371 98.7129V97.752C97.2441 98.0957 97.9258 98.2676 98.582 98.2676C99.1133 98.2676 99.5 98.1816 99.7422 98.0098C99.9844 97.8379 100.105 97.6074 100.105 97.3184C100.105 97.0645 99.9883 96.8496 99.7539 96.6738C99.5234 96.498 99.1113 96.2969 98.5176 96.0703C97.9121 95.8359 97.4863 95.6367 97.2402 95.4727C96.9941 95.3047 96.8125 95.1172 96.6953 94.9102C96.582 94.7031 96.5254 94.4512 96.5254 94.1543C96.5254 93.627 96.7402 93.2109 97.1699 92.9062C97.5996 92.6016 98.1895 92.4492 98.9395 92.4492C99.6699 92.4492 100.354 92.5938 100.99 92.8828L100.633 93.7207C99.9805 93.4473 99.3926 93.3105 98.8691 93.3105C98.4316 93.3105 98.0996 93.3809 97.873 93.5215C97.6465 93.6582 97.5332 93.8477 97.5332 94.0898C97.5332 94.3242 97.6309 94.5195 97.8262 94.6758C98.0215 94.8281 98.4766 95.041 99.1914 95.3145C99.7266 95.5137 100.121 95.6992 100.375 95.8711C100.633 96.043 100.822 96.2363 100.943 96.4512C101.064 96.666 101.125 96.9238 101.125 97.2246Z" fill="#F4F4F4"/>
<circle cx="71" cy="40" r="20" fill="#4800E3" fill-opacity="0.1"/>
<path d="M63.0449 33.9773C62.8479 33.9773 62.6851 33.9129 62.5563 33.7841C62.4275 33.6553 62.3631 33.4924 62.3631 33.2955V30.6818C62.3631 30.4848 62.4275 30.322 62.5563 30.1932C62.6851 30.0644 62.8479 30 63.0449 30H65.6586C65.8555 30 66.0184 30.0644 66.1472 30.1932C66.276 30.322 66.3404 30.4848 66.3404 30.6818C66.3404 30.8788 66.276 31.0417 66.1472 31.1705C66.0184 31.2992 65.8555 31.3636 65.6586 31.3636H63.7267V33.2955C63.7267 33.4924 63.6623 33.6553 63.5336 33.7841C63.4048 33.9129 63.2419 33.9773 63.0449 33.9773ZM79.8631 33.9773C79.6661 33.9773 79.5032 33.9129 79.3745 33.7841C79.2457 33.6553 79.1813 33.4924 79.1813 33.2955V31.3636H77.2495C77.0525 31.3636 76.8896 31.2992 76.7608 31.1705C76.632 31.0417 76.5676 30.8788 76.5676 30.6818C76.5676 30.4848 76.632 30.322 76.7608 30.1932C76.8896 30.0644 77.0525 30 77.2495 30H79.8631C80.0601 30 80.2229 30.0644 80.3517 30.1932C80.4805 30.322 80.5449 30.4848 80.5449 30.6818V33.2955C80.5449 33.4924 80.4805 33.6553 80.3517 33.7841C80.2229 33.9129 80.0601 33.9773 79.8631 33.9773ZM63.0449 50C62.8479 50 62.6851 49.9356 62.5563 49.8068C62.4275 49.678 62.3631 49.5152 62.3631 49.3182V46.7045C62.3631 46.5076 62.4275 46.3447 62.5563 46.2159C62.6851 46.0871 62.8479 46.0227 63.0449 46.0227C63.2419 46.0227 63.4048 46.0871 63.5336 46.2159C63.6623 46.3447 63.7267 46.5076 63.7267 46.7045V48.6364H65.6586C65.8555 48.6364 66.0184 48.7008 66.1472 48.8295C66.276 48.9583 66.3404 49.1212 66.3404 49.3182C66.3404 49.5152 66.276 49.678 66.1472 49.8068C66.0184 49.9356 65.8555 50 65.6586 50H63.0449ZM77.2495 50C77.0525 50 76.8896 49.9356 76.7608 49.8068C76.632 49.678 76.5676 49.5152 76.5676 49.3182C76.5676 49.1212 76.632 48.9583 76.7608 48.8295C76.8896 48.7008 77.0525 48.6364 77.2495 48.6364H79.1813V46.7045C79.1813 46.5076 79.2457 46.3447 79.3745 46.2159C79.5032 46.0871 79.6661 46.0227 79.8631 46.0227C80.0601 46.0227 80.2229 46.0871 80.3517 46.2159C80.4805 46.3447 80.5449 46.5076 80.5449 46.7045V49.3182C80.5449 49.5152 80.4805 49.678 80.3517 49.8068C80.2229 49.9356 80.0601 50 79.8631 50H77.2495ZM66.454 45.9091H76.454V34.0909H66.454V45.9091ZM66.454 47.2727C66.0904 47.2727 65.7722 47.1364 65.4995 46.8636C65.2267 46.5909 65.0904 46.2727 65.0904 45.9091V34.0909C65.0904 33.7273 65.2267 33.4091 65.4995 33.1364C65.7722 32.8636 66.0904 32.7273 66.454 32.7273H76.454C76.8176 32.7273 77.1358 32.8636 77.4086 33.1364C77.6813 33.4091 77.8176 33.7273 77.8176 34.0909V45.9091C77.8176 46.2727 77.6813 46.5909 77.4086 46.8636C77.1358 47.1364 76.8176 47.2727 76.454 47.2727H66.454ZM69.6358 37.9545H73.2722C73.4692 37.9545 73.632 37.8902 73.7608 37.7614C73.8896 37.6326 73.954 37.4697 73.954 37.2727C73.954 37.0758 73.8896 36.9129 73.7608 36.7841C73.632 36.6553 73.4692 36.5909 73.2722 36.5909H69.6358C69.4389 36.5909 69.276 36.6553 69.1472 36.7841C69.0184 36.9129 68.954 37.0758 68.954 37.2727C68.954 37.4697 69.0184 37.6326 69.1472 37.7614C69.276 37.8902 69.4389 37.9545 69.6358 37.9545ZM69.6358 40.6818H73.2722C73.4692 40.6818 73.632 40.6174 73.7608 40.4886C73.8896 40.3598 73.954 40.197 73.954 40C73.954 39.803 73.8896 39.6402 73.7608 39.5114C73.632 39.3826 73.4692 39.3182 73.2722 39.3182H69.6358C69.4389 39.3182 69.276 39.3826 69.1472 39.5114C69.0184 39.6402 68.954 39.803 68.954 40C68.954 40.197 69.0184 40.3598 69.1472 40.4886C69.276 40.6174 69.4389 40.6818 69.6358 40.6818ZM69.6358 43.4091H73.2722C73.4692 43.4091 73.632 43.3447 73.7608 43.2159C73.8896 43.0871 73.954 42.9242 73.954 42.7273C73.954 42.5303 73.8896 42.3674 73.7608 42.2386C73.632 42.1098 73.4692 42.0455 73.2722 42.0455H69.6358C69.4389 42.0455 69.276 42.1098 69.1472 42.2386C69.0184 42.3674 68.954 42.5303 68.954 42.7273C68.954 42.9242 69.0184 43.0871 69.1472 43.2159C69.276 43.3447 69.4389 43.4091 69.6358 43.4091ZM66.454 45.9091V34.0909V45.9091Z" fill="url(#paint1_linear_297_451)"/>
<defs>
<linearGradient id="paint0_linear_297_451" x1="-620.151" y1="562.625" x2="-224.909" y2="-187.641" gradientUnits="userSpaceOnUse">
<stop stop-color="#543290"/>
<stop offset="1" stop-color="#543290" stop-opacity="0.1"/>
</linearGradient>
<linearGradient id="paint1_linear_297_451" x1="71.454" y1="30" x2="71.454" y2="50" gradientUnits="userSpaceOnUse">
<stop stop-color="#7340E0"/>
<stop offset="1" stop-color="#7340E0" stop-opacity="0.3"/>
</linearGradient>
</defs>
</svg>
