<svg width="40" height="40" viewBox="0 0 40 40" fill="none" xmlns="http://www.w3.org/2000/svg">
<circle cx="20" cy="20" r="20" fill="#4800E3" fill-opacity="0.1"/>
<path d="M12.0449 13.9773C11.8479 13.9773 11.6851 13.9129 11.5563 13.7841C11.4275 13.6553 11.3631 13.4924 11.3631 13.2955V10.6818C11.3631 10.4848 11.4275 10.322 11.5563 10.1932C11.6851 10.0644 11.8479 10 12.0449 10H14.6586C14.8555 10 15.0184 10.0644 15.1472 10.1932C15.276 10.322 15.3404 10.4848 15.3404 10.6818C15.3404 10.8788 15.276 11.0417 15.1472 11.1705C15.0184 11.2992 14.8555 11.3636 14.6586 11.3636H12.7267V13.2955C12.7267 13.4924 12.6623 13.6553 12.5336 13.7841C12.4048 13.9129 12.2419 13.9773 12.0449 13.9773ZM28.8631 13.9773C28.6661 13.9773 28.5032 13.9129 28.3745 13.7841C28.2457 13.6553 28.1813 13.4924 28.1813 13.2955V11.3636H26.2495C26.0525 11.3636 25.8896 11.2992 25.7608 11.1705C25.632 11.0417 25.5676 10.8788 25.5676 10.6818C25.5676 10.4848 25.632 10.322 25.7608 10.1932C25.8896 10.0644 26.0525 10 26.2495 10H28.8631C29.0601 10 29.2229 10.0644 29.3517 10.1932C29.4805 10.322 29.5449 10.4848 29.5449 10.6818V13.2955C29.5449 13.4924 29.4805 13.6553 29.3517 13.7841C29.2229 13.9129 29.0601 13.9773 28.8631 13.9773ZM12.0449 30C11.8479 30 11.6851 29.9356 11.5563 29.8068C11.4275 29.678 11.3631 29.5152 11.3631 29.3182V26.7045C11.3631 26.5076 11.4275 26.3447 11.5563 26.2159C11.6851 26.0871 11.8479 26.0227 12.0449 26.0227C12.2419 26.0227 12.4048 26.0871 12.5336 26.2159C12.6623 26.3447 12.7267 26.5076 12.7267 26.7045V28.6364H14.6586C14.8555 28.6364 15.0184 28.7008 15.1472 28.8295C15.276 28.9583 15.3404 29.1212 15.3404 29.3182C15.3404 29.5152 15.276 29.678 15.1472 29.8068C15.0184 29.9356 14.8555 30 14.6586 30H12.0449ZM26.2495 30C26.0525 30 25.8896 29.9356 25.7608 29.8068C25.632 29.678 25.5676 29.5152 25.5676 29.3182C25.5676 29.1212 25.632 28.9583 25.7608 28.8295C25.8896 28.7008 26.0525 28.6364 26.2495 28.6364H28.1813V26.7045C28.1813 26.5076 28.2457 26.3447 28.3745 26.2159C28.5032 26.0871 28.6661 26.0227 28.8631 26.0227C29.0601 26.0227 29.2229 26.0871 29.3517 26.2159C29.4805 26.3447 29.5449 26.5076 29.5449 26.7045V29.3182C29.5449 29.5152 29.4805 29.678 29.3517 29.8068C29.2229 29.9356 29.0601 30 28.8631 30H26.2495ZM15.454 25.9091H25.454V14.0909H15.454V25.9091ZM15.454 27.2727C15.0904 27.2727 14.7722 27.1364 14.4995 26.8636C14.2267 26.5909 14.0904 26.2727 14.0904 25.9091V14.0909C14.0904 13.7273 14.2267 13.4091 14.4995 13.1364C14.7722 12.8636 15.0904 12.7273 15.454 12.7273H25.454C25.8176 12.7273 26.1358 12.8636 26.4086 13.1364C26.6813 13.4091 26.8176 13.7273 26.8176 14.0909V25.9091C26.8176 26.2727 26.6813 26.5909 26.4086 26.8636C26.1358 27.1364 25.8176 27.2727 25.454 27.2727H15.454ZM18.6358 17.9545H22.2722C22.4692 17.9545 22.632 17.8902 22.7608 17.7614C22.8896 17.6326 22.954 17.4697 22.954 17.2727C22.954 17.0758 22.8896 16.9129 22.7608 16.7841C22.632 16.6553 22.4692 16.5909 22.2722 16.5909H18.6358C18.4389 16.5909 18.276 16.6553 18.1472 16.7841C18.0184 16.9129 17.954 17.0758 17.954 17.2727C17.954 17.4697 18.0184 17.6326 18.1472 17.7614C18.276 17.8902 18.4389 17.9545 18.6358 17.9545ZM18.6358 20.6818H22.2722C22.4692 20.6818 22.632 20.6174 22.7608 20.4886C22.8896 20.3598 22.954 20.197 22.954 20C22.954 19.803 22.8896 19.6402 22.7608 19.5114C22.632 19.3826 22.4692 19.3182 22.2722 19.3182H18.6358C18.4389 19.3182 18.276 19.3826 18.1472 19.5114C18.0184 19.6402 17.954 19.803 17.954 20C17.954 20.197 18.0184 20.3598 18.1472 20.4886C18.276 20.6174 18.4389 20.6818 18.6358 20.6818ZM18.6358 23.4091H22.2722C22.4692 23.4091 22.632 23.3447 22.7608 23.2159C22.8896 23.0871 22.954 22.9242 22.954 22.7273C22.954 22.5303 22.8896 22.3674 22.7608 22.2386C22.632 22.1098 22.4692 22.0455 22.2722 22.0455H18.6358C18.4389 22.0455 18.276 22.1098 18.1472 22.2386C18.0184 22.3674 17.954 22.5303 17.954 22.7273C17.954 22.9242 18.0184 23.0871 18.1472 23.2159C18.276 23.3447 18.4389 23.4091 18.6358 23.4091ZM15.454 25.9091V14.0909V25.9091Z" fill="url(#paint0_linear_297_457)"/>
<defs>
<linearGradient id="paint0_linear_297_457" x1="20.454" y1="10" x2="20.454" y2="30" gradientUnits="userSpaceOnUse">
<stop stop-color="#7340E0"/>
<stop offset="1" stop-color="#7340E0" stop-opacity="0.3"/>
</linearGradient>
</defs>
</svg>
